<svg xmlns="http://www.w3.org/2000/svg" xmlns:xlink="http://www.w3.org/1999/xlink" width="303.5" height="855.5" viewBox="0 0 303.5 855.5">
  <defs>
    <linearGradient id="linear-gradient" x1="0.04" y1="0.167" x2="0.955" y2="0.205" gradientUnits="objectBoundingBox">
      <stop offset="0" stop-color="#202b2a" stop-opacity="0.49"/>
      <stop offset="1" stop-opacity="0"/>
    </linearGradient>
  </defs>
  <path id="Subtraction_2" data-name="Subtraction 2" d="M336.5,2256H34v-9.163H77.9a75.161,75.161,0,0,1-13.931-6.6A76.106,76.106,0,0,1,34,2206.273v-17.586a70.423,70.423,0,0,0,68.939,57.082c38.724,0,70.228-31.66,70.228-70.575s-31.5-70.575-70.228-70.575A70.424,70.424,0,0,0,34,2161.7v-17.586a76.032,76.032,0,0,1,34.167-36.335,74.9,74.9,0,0,1,15.988-6.138H34V2096.3H39.82V1948.728H34v-5.345H252.577v-70.711H34v-5.345H252.577V1719.758H246.3a1.527,1.527,0,0,1-2.329,0h-9.21a1.527,1.527,0,0,1-2.329,0h-9.21a1.527,1.527,0,0,1-2.329,0h-9.21a1.527,1.527,0,0,1-2.329,0h-9.21a1.527,1.527,0,0,1-2.329,0h-9.21a1.528,1.528,0,0,1-2.33,0h-9.209a1.528,1.528,0,0,1-2.33,0h-9.21a1.527,1.527,0,0,1-2.329,0h-9.21a1.527,1.527,0,0,1-2.329,0h-9.21a1.527,1.527,0,0,1-2.329,0h-9.836a1.517,1.517,0,0,1-.957,0H118.745a1.517,1.517,0,0,1-.957,0H107.206a1.517,1.517,0,0,1-.957,0H95.667a1.517,1.517,0,0,1-.957,0H84.128a1.517,1.517,0,0,1-.957,0H72.589a1.517,1.517,0,0,1-.957,0H61.051a1.517,1.517,0,0,1-.957,0H49.513a1.517,1.517,0,0,1-.957,0H37.974a1.517,1.517,0,0,1-.957,0H34v-5.345h6.872V1567.644H34v-6.371a1.533,1.533,0,0,1,2.851,1.027h8.531a1.484,1.484,0,0,1-.028-.3,1.532,1.532,0,1,1,3.064,0,1.554,1.554,0,0,1-.029.3h8.531a1.5,1.5,0,0,1-.028-.3,1.532,1.532,0,1,1,3.065,0,1.48,1.48,0,0,1-.029.3H68.46a1.484,1.484,0,0,1-.028-.3,1.532,1.532,0,1,1,3.065,0,1.493,1.493,0,0,1-.029.3H80a1.484,1.484,0,0,1-.028-.3,1.532,1.532,0,1,1,3.065,0,1.554,1.554,0,0,1-.029.3h8.531a1.5,1.5,0,0,1-.028-.3,1.533,1.533,0,1,1,3.065,0,1.554,1.554,0,0,1-.029.3h8.53a1.5,1.5,0,0,1-.028-.3,1.532,1.532,0,1,1,3.065,0,1.567,1.567,0,0,1-.029.3h8.531a1.485,1.485,0,0,1-.028-.3,1.532,1.532,0,1,1,3.064,0,1.554,1.554,0,0,1-.029.3h8.531a1.5,1.5,0,0,1-.028-.3,1.532,1.532,0,1,1,3.064,0,1.5,1.5,0,0,1-.029.3h8.531a1.5,1.5,0,0,1-.028-.3,1.532,1.532,0,1,1,3.064,0,1.567,1.567,0,0,1-.029.3h8.531a1.484,1.484,0,0,1-.028-.3,1.532,1.532,0,1,1,3.064,0,1.553,1.553,0,0,1-.029.3h8.531a1.5,1.5,0,0,1-.028-.3,1.532,1.532,0,1,1,3.064,0,1.5,1.5,0,0,1-.029.3h8.531a1.484,1.484,0,0,1-.028-.3,1.532,1.532,0,1,1,3.064,0,1.555,1.555,0,0,1-.029.3h8.471a1.5,1.5,0,0,1-.028-.3,1.532,1.532,0,1,1,3.065,0,1.553,1.553,0,0,1-.029.3h8.531a1.484,1.484,0,0,1-.028-.3,1.533,1.533,0,1,1,3.065,0,1.5,1.5,0,0,1-.029.3h8.531a1.5,1.5,0,0,1-.028-.3,1.532,1.532,0,1,1,3.064,0,1.555,1.555,0,0,1-.029.3h8.531a1.484,1.484,0,0,1-.028-.3,1.532,1.532,0,1,1,3.064,0,1.555,1.555,0,0,1-.029.3h8.531a1.5,1.5,0,0,1-.028-.3,1.532,1.532,0,1,1,3.064,0,1.5,1.5,0,0,1-.029.3h8.531a1.56,1.56,0,0,1-.029-.3,1.532,1.532,0,1,1,3.037.3h8.531a1.484,1.484,0,0,1-.028-.3,1.532,1.532,0,1,1,3.036.3h8.531a1.5,1.5,0,0,1-.028-.3,1.532,1.532,0,1,1,3.065,0,1.5,1.5,0,0,1-.029.3h8.53a1.5,1.5,0,0,1-.028-.3,1.532,1.532,0,1,1,3.065,0,1.5,1.5,0,0,1-.029.3h8.531a1.476,1.476,0,0,1-.028-.3,1.532,1.532,0,1,1,3.036.3h8.531a1.533,1.533,0,1,1,3.037-.3,1.564,1.564,0,0,1-.029.3h8.531a1.508,1.508,0,0,1-.028-.3,1.532,1.532,0,1,1,3.064,0,1.565,1.565,0,0,1-.029.3h8.531a1.484,1.484,0,0,1-.028-.3,1.533,1.533,0,1,1,3.037.3h2.119v-71.512H34v-5.343H176.725L134.4,1401.5h5.963l40.5,80.33,40.5-80.329h5.963L185,1485.444H327.383v-3.1L286.626,1401.5h5.962l34.8,69.016V1401.5H336.5V2256Zm-159.606-65.249h0a75.929,75.929,0,0,1-48.913,56.085H176.9v-56.085Zm150.489-76.523-66.857,132.609h66.857V2114.23h0Zm-145.169-3.287h0v135.9h68.513l-68.513-135.9Zm1.273-9.3,72.14,143.088L327.383,2102.4v-.762Zm-61.762,0h0a75.863,75.863,0,0,1,55.169,58v-58H121.726Zm44.33-152.914V2096.3h10.527V1948.728H166.056Zm-15.086,0V2096.3h9.768V1948.728H150.97Zm-15.084,0V2096.3h9.767V1948.728h-9.767Zm-15.086,0V2096.3h9.768V1948.728H120.8Zm-15.085,0V2096.3h9.766V1948.728h-9.767Zm-15.322,0V2096.3h10V1948.728h-10Zm-15.085,0V2096.3h9.767V1948.728H75.309Zm-15.086,0V2096.3H69.99V1948.728H60.223Zm-15.085,0V2096.3h9.767V1948.728H45.139Zm210.232,81.913h0a77.9,77.9,0,0,1-16.183,40.259,79.253,79.253,0,0,1-34.57,25.4H306.112a79.23,79.23,0,0,1-34.565-25.4,77.878,77.878,0,0,1-16.175-40.258ZM181.9,1949.733v146.105c38.435-2.723,68.544-34.811,68.544-73.052S220.338,1952.457,181.9,1949.733Zm145.481.152a73.894,73.894,0,0,0-47.627,23.439,72.633,72.633,0,0,0,0,98.954,73.893,73.893,0,0,0,47.627,23.44V1949.885Zm-124.265-1.157h0a79.173,79.173,0,0,1,35.591,25.336,77.868,77.868,0,0,1,16.664,40.882,77.837,77.837,0,0,1,16.692-40.9,79.15,79.15,0,0,1,35.639-25.318H203.118Zm92.617-228.97v223.625h31.648V1719.758Zm-37.839,0v223.625h32.522V1719.758H257.9Zm69.486-52.258h0a76.051,76.051,0,0,1-33.555,39.924,75,75,0,0,1-16.436,6.989h49.991V1667.5Zm-144.688-9.3h0v56.218h52.7a75.887,75.887,0,0,1-52.7-56.219Zm-15.086-90.551v146.768h9.768V1567.644Zm-15.085,0v146.768h9.767V1567.644Zm-15.085,0v146.768h9.768V1567.644Zm-15.085,0v146.768h9.768V1567.644Zm-15.821,0v146.768h10.5V1567.644Zm-15.086,0v146.768h9.768V1567.644Zm-15.085,0v146.768h9.767V1567.644Zm-15.086,0v146.768h9.768V1567.644Zm-15.086,0v146.768h9.768V1567.644Zm210.206,3.249a69.333,69.333,0,0,0-27.31,5.555,70.468,70.468,0,0,0-22.324,15.14,70.86,70.86,0,0,0-15.065,22.436,70.257,70.257,0,0,0-5.528,27.445c0,38.915,31.5,70.575,70.227,70.575s70.228-31.66,70.228-70.575S295.119,1570.893,256.4,1570.893Zm-73.7-3.249v57.1a75.846,75.846,0,0,1,56.02-57.1Zm91.385,0h0a74.857,74.857,0,0,1,17.546,6.651,76.035,76.035,0,0,1,35.759,41.142v-47.794h-53.3Zm-28.943,297.815a1.539,1.539,0,1,1,1.532-1.54A1.538,1.538,0,0,1,245.136,1865.459Zm-11.539,0a1.54,1.54,0,1,1,1.533-1.54A1.539,1.539,0,0,1,233.6,1865.459Zm-11.539,0a1.54,1.54,0,1,1,1.533-1.54A1.538,1.538,0,0,1,222.058,1865.459Zm-11.539,0a1.539,1.539,0,1,1,1.533-1.54A1.538,1.538,0,0,1,210.519,1865.459Zm-11.539,0a1.539,1.539,0,1,1,1.533-1.54A1.538,1.538,0,0,1,198.98,1865.459Zm-11.539,0a1.539,1.539,0,1,1,1.533-1.54A1.538,1.538,0,0,1,187.441,1865.459Zm-11.539,0a1.539,1.539,0,1,1,1.533-1.54A1.538,1.538,0,0,1,175.9,1865.459Zm-11.539,0a1.539,1.539,0,1,1,1.532-1.54A1.538,1.538,0,0,1,164.363,1865.459Zm-11.539,0a1.539,1.539,0,1,1,1.532-1.54A1.538,1.538,0,0,1,152.824,1865.459Zm-11.539,0a1.54,1.54,0,1,1,1.532-1.54A1.538,1.538,0,0,1,141.286,1865.459Zm-11.48,0a1.539,1.539,0,1,1,1.533-1.54A1.538,1.538,0,0,1,129.806,1865.459Zm-11.539,0a1.539,1.539,0,1,1,1.533-1.54A1.538,1.538,0,0,1,118.267,1865.459Zm-11.539,0a1.539,1.539,0,1,1,1.533-1.54A1.538,1.538,0,0,1,106.728,1865.459Zm-11.539,0a1.539,1.539,0,1,1,1.533-1.54A1.538,1.538,0,0,1,95.189,1865.459Zm-11.539,0a1.539,1.539,0,1,1,1.533-1.54A1.538,1.538,0,0,1,83.65,1865.459Zm-11.539,0a1.539,1.539,0,1,1,1.533-1.54A1.538,1.538,0,0,1,72.112,1865.459Zm-11.538,0a1.539,1.539,0,1,1,1.533-1.54A1.538,1.538,0,0,1,60.574,1865.459Zm-11.539,0a1.539,1.539,0,1,1,1.532-1.54A1.538,1.538,0,0,1,49.035,1865.459Zm-11.539,0a1.539,1.539,0,1,1,1.532-1.54A1.538,1.538,0,0,1,37.5,1865.459Zm201.871-4.946a1.539,1.539,0,1,1,1.532-1.54A1.539,1.539,0,0,1,239.367,1860.512Zm-11.539,0a1.539,1.539,0,1,1,1.532-1.54A1.538,1.538,0,0,1,227.828,1860.512Zm-46.157,0a1.539,1.539,0,1,1,1.533-1.54A1.538,1.538,0,0,1,181.671,1860.512Zm-34.617,0a1.539,1.539,0,1,1,1.533-1.54A1.538,1.538,0,0,1,147.055,1860.512Zm103.851,0a1.539,1.539,0,1,1,1.532-1.539A1.538,1.538,0,0,1,250.906,1860.511Zm-34.618,0a1.539,1.539,0,1,1,1.533-1.539A1.537,1.537,0,0,1,216.288,1860.511Zm-11.539,0a1.539,1.539,0,1,1,1.533-1.539A1.537,1.537,0,0,1,204.749,1860.511Zm-11.539,0a1.539,1.539,0,1,1,1.533-1.539A1.537,1.537,0,0,1,193.21,1860.511Zm-23.078,0a1.539,1.539,0,1,1,1.533-1.539A1.537,1.537,0,0,1,170.132,1860.511Zm-11.538,0a1.539,1.539,0,1,1,1.532-1.539A1.538,1.538,0,0,1,158.594,1860.511Zm-23.018,0a1.539,1.539,0,1,1,1.533-1.54A1.538,1.538,0,0,1,135.576,1860.511Zm-11.539,0a1.539,1.539,0,1,1,1.533-1.54A1.537,1.537,0,0,1,124.037,1860.511Zm-11.539,0a1.539,1.539,0,1,1,1.533-1.54A1.537,1.537,0,0,1,112.5,1860.511Zm-11.539,0a1.539,1.539,0,1,1,1.533-1.54A1.537,1.537,0,0,1,100.959,1860.511Zm-11.539,0a1.539,1.539,0,1,1,1.533-1.54A1.537,1.537,0,0,1,89.42,1860.511Zm-11.539,0a1.539,1.539,0,1,1,1.533-1.54A1.537,1.537,0,0,1,77.881,1860.511Zm-11.539,0a1.539,1.539,0,1,1,1.533-1.54A1.538,1.538,0,0,1,66.343,1860.511Zm-11.539,0a1.539,1.539,0,1,1,1.532-1.54A1.538,1.538,0,0,1,54.8,1860.511Zm-11.539,0a1.539,1.539,0,1,1,1.532-1.54A1.538,1.538,0,0,1,43.265,1860.511Zm201.871-5.67a1.54,1.54,0,1,1,1.532-1.54A1.538,1.538,0,0,1,245.136,1854.842Zm-11.539,0a1.54,1.54,0,1,1,1.533-1.54A1.538,1.538,0,0,1,233.6,1854.842Zm-11.539,0a1.54,1.54,0,1,1,1.533-1.54A1.538,1.538,0,0,1,222.058,1854.842Zm-11.539,0a1.54,1.54,0,1,1,1.533-1.54A1.538,1.538,0,0,1,210.519,1854.842Zm-11.539,0a1.54,1.54,0,1,1,1.533-1.54A1.538,1.538,0,0,1,198.98,1854.842Zm-11.539,0a1.54,1.54,0,1,1,1.533-1.54A1.538,1.538,0,0,1,187.441,1854.842Zm-11.539,0a1.54,1.54,0,1,1,1.533-1.54A1.538,1.538,0,0,1,175.9,1854.842Zm-11.539,0a1.54,1.54,0,1,1,1.532-1.54A1.538,1.538,0,0,1,164.363,1854.842Zm-11.539,0a1.54,1.54,0,1,1,1.532-1.54A1.538,1.538,0,0,1,152.824,1854.842Zm-11.539,0a1.54,1.54,0,1,1,1.532-1.54A1.538,1.538,0,0,1,141.286,1854.842Zm-11.48,0a1.54,1.54,0,1,1,1.533-1.54A1.538,1.538,0,0,1,129.806,1854.842Zm-11.539,0a1.54,1.54,0,1,1,1.533-1.54A1.538,1.538,0,0,1,118.267,1854.842Zm-11.539,0a1.54,1.54,0,1,1,1.533-1.54A1.538,1.538,0,0,1,106.728,1854.842Zm-11.539,0a1.54,1.54,0,1,1,1.533-1.54A1.538,1.538,0,0,1,95.189,1854.842Zm-11.539,0a1.54,1.54,0,1,1,1.533-1.54A1.538,1.538,0,0,1,83.65,1854.842Zm-11.539,0a1.54,1.54,0,1,1,1.533-1.54A1.538,1.538,0,0,1,72.112,1854.842Zm-11.538,0a1.54,1.54,0,1,1,1.533-1.54A1.538,1.538,0,0,1,60.574,1854.842Zm-11.539,0a1.54,1.54,0,1,1,1.532-1.54A1.538,1.538,0,0,1,49.035,1854.842Zm-11.539,0a1.54,1.54,0,1,1,1.532-1.54A1.538,1.538,0,0,1,37.5,1854.842Zm213.41-5.54a1.54,1.54,0,1,1,1.532-1.54A1.538,1.538,0,0,1,250.906,1849.3Zm-11.541,0a1.54,1.54,0,1,1,1.534-1.54A1.538,1.538,0,0,1,239.365,1849.3Zm-11.538,0a1.54,1.54,0,1,1,1.533-1.54A1.538,1.538,0,0,1,227.827,1849.3Zm-11.539,0a1.54,1.54,0,1,1,1.533-1.54A1.538,1.538,0,0,1,216.288,1849.3Zm-11.539,0a1.54,1.54,0,1,1,1.533-1.54A1.538,1.538,0,0,1,204.749,1849.3Zm-11.538,0a1.54,1.54,0,1,1,1.532-1.54A1.538,1.538,0,0,1,193.211,1849.3Zm-11.539,0a1.54,1.54,0,1,1,1.533-1.54A1.539,1.539,0,0,1,181.672,1849.3Zm-11.539,0a1.54,1.54,0,1,1,1.532-1.54A1.538,1.538,0,0,1,170.133,1849.3Zm-11.539,0a1.54,1.54,0,1,1,1.532-1.54A1.538,1.538,0,0,1,158.594,1849.3Zm-11.539,0a1.54,1.54,0,1,1,1.532-1.54A1.538,1.538,0,0,1,147.055,1849.3Zm-11.479,0a1.54,1.54,0,1,1,1.533-1.54A1.538,1.538,0,0,1,135.576,1849.3Zm-11.539,0a1.54,1.54,0,1,1,1.533-1.54A1.538,1.538,0,0,1,124.037,1849.3Zm-11.539,0a1.54,1.54,0,1,1,1.533-1.54A1.538,1.538,0,0,1,112.5,1849.3Zm-11.539,0a1.54,1.54,0,1,1,1.533-1.54A1.538,1.538,0,0,1,100.959,1849.3Zm-11.539,0a1.54,1.54,0,1,1,1.533-1.54A1.538,1.538,0,0,1,89.42,1849.3Zm-11.539,0a1.54,1.54,0,1,1,1.533-1.54A1.538,1.538,0,0,1,77.881,1849.3Zm-11.539,0a1.54,1.54,0,1,1,1.533-1.54A1.538,1.538,0,0,1,66.343,1849.3Zm-11.539,0a1.54,1.54,0,1,1,1.532-1.54A1.538,1.538,0,0,1,54.8,1849.3Zm-11.539,0a1.54,1.54,0,1,1,1.532-1.54A1.538,1.538,0,0,1,43.265,1849.3Zm201.871-5.746a1.54,1.54,0,1,1,1.532-1.54A1.538,1.538,0,0,1,245.136,1843.556Zm-11.539,0a1.54,1.54,0,1,1,1.533-1.54A1.538,1.538,0,0,1,233.6,1843.556Zm-11.539,0a1.54,1.54,0,1,1,1.533-1.54A1.538,1.538,0,0,1,222.058,1843.556Zm-11.539,0a1.54,1.54,0,1,1,1.533-1.54A1.538,1.538,0,0,1,210.519,1843.556Zm-11.539,0a1.54,1.54,0,1,1,1.533-1.54A1.538,1.538,0,0,1,198.98,1843.556Zm-11.539,0a1.54,1.54,0,1,1,1.533-1.54A1.538,1.538,0,0,1,187.441,1843.556Zm-11.539,0a1.54,1.54,0,1,1,1.533-1.54A1.538,1.538,0,0,1,175.9,1843.556Zm-11.539,0a1.54,1.54,0,1,1,1.532-1.54A1.538,1.538,0,0,1,164.363,1843.556Zm-11.539,0a1.54,1.54,0,1,1,1.532-1.54A1.538,1.538,0,0,1,152.824,1843.556Zm-11.479,0a1.54,1.54,0,1,1,1.532-1.54A1.538,1.538,0,0,1,141.346,1843.556Zm-11.54,0a1.54,1.54,0,1,1,1.533-1.54A1.538,1.538,0,0,1,129.806,1843.556Zm-11.539,0a1.54,1.54,0,1,1,1.533-1.54A1.538,1.538,0,0,1,118.267,1843.556Zm-11.539,0a1.54,1.54,0,1,1,1.533-1.54A1.538,1.538,0,0,1,106.728,1843.556Zm-11.539,0a1.54,1.54,0,1,1,1.533-1.54A1.538,1.538,0,0,1,95.189,1843.556Zm-11.538,0a1.54,1.54,0,1,1,1.532-1.54A1.538,1.538,0,0,1,83.651,1843.556Zm-11.539,0a1.54,1.54,0,1,1,1.532-1.54A1.538,1.538,0,0,1,72.112,1843.556Zm-11.539,0a1.54,1.54,0,1,1,1.533-1.54A1.538,1.538,0,0,1,60.574,1843.556Zm-11.539,0a1.54,1.54,0,1,1,1.532-1.54A1.538,1.538,0,0,1,49.035,1843.556Zm-11.539,0a1.54,1.54,0,1,1,1.532-1.54A1.538,1.538,0,0,1,37.5,1843.556Zm213.41-5.671a1.54,1.54,0,1,1,1.532-1.54A1.538,1.538,0,0,1,250.906,1837.885Zm-11.541,0a1.54,1.54,0,1,1,1.534-1.54A1.538,1.538,0,0,1,239.365,1837.885Zm-11.538,0a1.54,1.54,0,1,1,1.533-1.54A1.538,1.538,0,0,1,227.827,1837.885Zm-11.539,0a1.54,1.54,0,1,1,1.533-1.54A1.538,1.538,0,0,1,216.288,1837.885Zm-11.539,0a1.54,1.54,0,1,1,1.533-1.54A1.538,1.538,0,0,1,204.749,1837.885Zm-11.539,0a1.54,1.54,0,1,1,1.533-1.54A1.538,1.538,0,0,1,193.21,1837.885Zm-11.538,0a1.54,1.54,0,1,1,1.533-1.54A1.539,1.539,0,0,1,181.672,1837.885Zm-11.54,0a1.54,1.54,0,1,1,1.533-1.54A1.538,1.538,0,0,1,170.132,1837.885Zm-11.538,0a1.54,1.54,0,1,1,1.532-1.54A1.538,1.538,0,0,1,158.594,1837.885Zm-11.539,0a1.54,1.54,0,1,1,1.532-1.54A1.538,1.538,0,0,1,147.055,1837.885Zm-11.479,0a1.54,1.54,0,1,1,1.533-1.54A1.538,1.538,0,0,1,135.576,1837.885Zm-11.539,0a1.54,1.54,0,1,1,1.533-1.54A1.538,1.538,0,0,1,124.037,1837.885Zm-11.539,0a1.54,1.54,0,1,1,1.533-1.54A1.538,1.538,0,0,1,112.5,1837.885Zm-11.539,0a1.54,1.54,0,1,1,1.533-1.54A1.538,1.538,0,0,1,100.959,1837.885Zm-11.539,0a1.54,1.54,0,1,1,1.533-1.54A1.538,1.538,0,0,1,89.42,1837.885Zm-11.539,0a1.54,1.54,0,1,1,1.533-1.54A1.538,1.538,0,0,1,77.881,1837.885Zm-11.539,0a1.54,1.54,0,1,1,1.533-1.54A1.538,1.538,0,0,1,66.343,1837.885Zm-11.539,0a1.54,1.54,0,1,1,1.532-1.54A1.538,1.538,0,0,1,54.8,1837.885Zm-11.539,0a1.54,1.54,0,1,1,1.533-1.54A1.538,1.538,0,0,1,43.265,1837.885Zm201.871-5.6a1.54,1.54,0,1,1,1.532-1.54A1.538,1.538,0,0,1,245.136,1832.283Zm-11.539,0a1.54,1.54,0,1,1,1.533-1.54A1.538,1.538,0,0,1,233.6,1832.283Zm-11.539,0a1.54,1.54,0,1,1,1.533-1.54A1.538,1.538,0,0,1,222.058,1832.283Zm-11.539,0a1.54,1.54,0,1,1,1.533-1.54A1.538,1.538,0,0,1,210.519,1832.283Zm-11.539,0a1.54,1.54,0,1,1,1.533-1.54A1.538,1.538,0,0,1,198.98,1832.283Zm-11.539,0a1.54,1.54,0,1,1,1.533-1.54A1.538,1.538,0,0,1,187.441,1832.283Zm-11.539,0a1.54,1.54,0,1,1,1.532-1.54A1.538,1.538,0,0,1,175.9,1832.283Zm-11.539,0a1.54,1.54,0,1,1,1.533-1.54A1.538,1.538,0,0,1,164.363,1832.283Zm-11.539,0a1.54,1.54,0,1,1,1.533-1.54A1.538,1.538,0,0,1,152.824,1832.283Zm-11.539,0a1.54,1.54,0,1,1,1.532-1.54A1.538,1.538,0,0,1,141.286,1832.283Zm-11.48,0a1.54,1.54,0,1,1,1.533-1.54A1.538,1.538,0,0,1,129.806,1832.283Zm-11.539,0a1.54,1.54,0,1,1,1.533-1.54A1.538,1.538,0,0,1,118.267,1832.283Zm-11.539,0a1.54,1.54,0,1,1,1.533-1.54A1.538,1.538,0,0,1,106.728,1832.283Zm-11.539,0a1.54,1.54,0,1,1,1.533-1.54A1.538,1.538,0,0,1,95.189,1832.283Zm-11.539,0a1.54,1.54,0,1,1,1.533-1.54A1.538,1.538,0,0,1,83.65,1832.283Zm-11.539,0a1.54,1.54,0,1,1,1.533-1.54A1.538,1.538,0,0,1,72.112,1832.283Zm-11.538,0a1.54,1.54,0,1,1,1.533-1.54A1.538,1.538,0,0,1,60.574,1832.283Zm-11.539,0a1.54,1.54,0,1,1,1.532-1.54A1.538,1.538,0,0,1,49.035,1832.283Zm-11.539,0a1.54,1.54,0,1,1,1.532-1.54A1.538,1.538,0,0,1,37.5,1832.283Zm213.41-5.746a1.54,1.54,0,1,1,1.532-1.54A1.538,1.538,0,0,1,250.906,1826.537Zm-11.541,0A1.54,1.54,0,1,1,240.9,1825,1.538,1.538,0,0,1,239.365,1826.537Zm-11.538,0a1.54,1.54,0,1,1,1.533-1.54A1.538,1.538,0,0,1,227.827,1826.537Zm-11.539,0a1.54,1.54,0,1,1,1.533-1.54A1.538,1.538,0,0,1,216.288,1826.537Zm-11.539,0a1.54,1.54,0,1,1,1.533-1.54A1.538,1.538,0,0,1,204.749,1826.537Zm-11.538,0a1.54,1.54,0,1,1,1.532-1.54A1.538,1.538,0,0,1,193.211,1826.537Zm-11.539,0A1.54,1.54,0,1,1,183.2,1825,1.539,1.539,0,0,1,181.672,1826.537Zm-11.539,0a1.54,1.54,0,1,1,1.532-1.54A1.538,1.538,0,0,1,170.133,1826.537Zm-11.539,0a1.54,1.54,0,1,1,1.532-1.54A1.538,1.538,0,0,1,158.594,1826.537Zm-11.539,0a1.54,1.54,0,1,1,1.532-1.54A1.538,1.538,0,0,1,147.055,1826.537Zm-11.479,0a1.54,1.54,0,1,1,1.533-1.54A1.538,1.538,0,0,1,135.576,1826.537Zm-11.539,0a1.54,1.54,0,1,1,1.533-1.54A1.538,1.538,0,0,1,124.037,1826.537Zm-11.539,0a1.54,1.54,0,1,1,1.533-1.54A1.538,1.538,0,0,1,112.5,1826.537Zm-11.539,0a1.54,1.54,0,1,1,1.533-1.54A1.538,1.538,0,0,1,100.959,1826.537Zm-11.539,0a1.54,1.54,0,1,1,1.533-1.54A1.538,1.538,0,0,1,89.42,1826.537Zm-11.539,0a1.54,1.54,0,1,1,1.533-1.54A1.538,1.538,0,0,1,77.881,1826.537Zm-11.539,0a1.54,1.54,0,1,1,1.533-1.54A1.538,1.538,0,0,1,66.343,1826.537Zm-11.539,0a1.54,1.54,0,1,1,1.532-1.54A1.538,1.538,0,0,1,54.8,1826.537Zm-11.539,0A1.54,1.54,0,1,1,44.8,1825,1.538,1.538,0,0,1,43.265,1826.537Zm201.871-5.67a1.54,1.54,0,1,1,1.532-1.541A1.539,1.539,0,0,1,245.136,1820.867Zm-11.539,0a1.54,1.54,0,1,1,1.533-1.541A1.538,1.538,0,0,1,233.6,1820.867Zm-11.539,0a1.54,1.54,0,1,1,1.533-1.541A1.538,1.538,0,0,1,222.058,1820.867Zm-11.539,0a1.54,1.54,0,1,1,1.533-1.541A1.538,1.538,0,0,1,210.519,1820.867Zm-11.539,0a1.54,1.54,0,1,1,1.533-1.541A1.539,1.539,0,0,1,198.98,1820.867Zm-11.539,0a1.54,1.54,0,1,1,1.533-1.541A1.539,1.539,0,0,1,187.441,1820.867Zm-11.539,0a1.54,1.54,0,1,1,1.532-1.541A1.539,1.539,0,0,1,175.9,1820.867Zm-11.539,0a1.54,1.54,0,1,1,1.533-1.541A1.539,1.539,0,0,1,164.363,1820.867Zm-11.539,0a1.54,1.54,0,1,1,1.533-1.541A1.539,1.539,0,0,1,152.824,1820.867Zm-11.539,0a1.54,1.54,0,1,1,1.532-1.541A1.539,1.539,0,0,1,141.286,1820.867Zm-11.48,0a1.54,1.54,0,1,1,1.533-1.541A1.538,1.538,0,0,1,129.806,1820.867Zm-11.539,0a1.54,1.54,0,1,1,1.533-1.541A1.538,1.538,0,0,1,118.267,1820.867Zm-11.539,0a1.54,1.54,0,1,1,1.533-1.541A1.538,1.538,0,0,1,106.728,1820.867Zm-11.539,0a1.54,1.54,0,1,1,1.533-1.541A1.538,1.538,0,0,1,95.189,1820.867Zm-11.539,0a1.54,1.54,0,1,1,1.533-1.541A1.538,1.538,0,0,1,83.65,1820.867Zm-11.539,0a1.54,1.54,0,1,1,1.533-1.541A1.538,1.538,0,0,1,72.112,1820.867Zm-11.538,0a1.54,1.54,0,1,1,1.533-1.541A1.539,1.539,0,0,1,60.574,1820.867Zm-11.539,0a1.54,1.54,0,1,1,1.532-1.541A1.539,1.539,0,0,1,49.035,1820.867Zm-11.539,0a1.54,1.54,0,1,1,1.532-1.541A1.539,1.539,0,0,1,37.5,1820.867Zm213.41-5.724a1.54,1.54,0,1,1,1.532-1.541A1.539,1.539,0,0,1,250.906,1815.143Zm-11.541,0a1.54,1.54,0,1,1,1.534-1.541A1.538,1.538,0,0,1,239.365,1815.143Zm-11.538,0a1.54,1.54,0,1,1,1.533-1.541A1.538,1.538,0,0,1,227.827,1815.143Zm-11.539,0a1.54,1.54,0,1,1,1.533-1.541A1.538,1.538,0,0,1,216.288,1815.143Zm-11.539,0a1.54,1.54,0,1,1,1.533-1.541A1.538,1.538,0,0,1,204.749,1815.143Zm-11.538,0a1.54,1.54,0,1,1,1.532-1.541A1.539,1.539,0,0,1,193.211,1815.143Zm-11.539,0a1.54,1.54,0,1,1,1.533-1.541A1.539,1.539,0,0,1,181.672,1815.143Zm-11.539,0a1.54,1.54,0,1,1,1.532-1.541A1.539,1.539,0,0,1,170.133,1815.143Zm-11.539,0a1.54,1.54,0,1,1,1.532-1.541A1.539,1.539,0,0,1,158.594,1815.143Zm-11.539,0a1.54,1.54,0,1,1,1.532-1.541A1.539,1.539,0,0,1,147.055,1815.143Zm-11.479,0a1.54,1.54,0,1,1,1.533-1.541A1.538,1.538,0,0,1,135.576,1815.143Zm-11.539,0a1.54,1.54,0,1,1,1.533-1.541A1.538,1.538,0,0,1,124.037,1815.143Zm-11.539,0a1.54,1.54,0,1,1,1.533-1.541A1.538,1.538,0,0,1,112.5,1815.143Zm-11.539,0a1.54,1.54,0,1,1,1.533-1.541A1.538,1.538,0,0,1,100.959,1815.143Zm-11.539,0a1.54,1.54,0,1,1,1.533-1.541A1.538,1.538,0,0,1,89.42,1815.143Zm-11.539,0a1.54,1.54,0,1,1,1.533-1.541A1.538,1.538,0,0,1,77.881,1815.143Zm-11.539,0a1.54,1.54,0,1,1,1.533-1.541A1.539,1.539,0,0,1,66.343,1815.143Zm-11.539,0a1.54,1.54,0,1,1,1.532-1.541A1.539,1.539,0,0,1,54.8,1815.143Zm-11.539,0A1.54,1.54,0,1,1,44.8,1813.6,1.539,1.539,0,0,1,43.265,1815.143Zm201.871-5.746a1.54,1.54,0,1,1,1.532-1.54A1.538,1.538,0,0,1,245.136,1809.4Zm-11.539,0a1.54,1.54,0,1,1,1.533-1.54A1.538,1.538,0,0,1,233.6,1809.4Zm-11.539,0a1.54,1.54,0,1,1,1.533-1.54A1.538,1.538,0,0,1,222.058,1809.4Zm-11.539,0a1.54,1.54,0,1,1,1.533-1.54A1.538,1.538,0,0,1,210.519,1809.4Zm-11.539,0a1.54,1.54,0,1,1,1.533-1.54A1.538,1.538,0,0,1,198.98,1809.4Zm-11.539,0a1.54,1.54,0,1,1,1.533-1.54A1.538,1.538,0,0,1,187.441,1809.4Zm-11.539,0a1.54,1.54,0,1,1,1.533-1.54A1.538,1.538,0,0,1,175.9,1809.4Zm-11.539,0a1.54,1.54,0,1,1,1.533-1.54A1.538,1.538,0,0,1,164.363,1809.4Zm-11.539,0a1.54,1.54,0,1,1,1.533-1.54A1.538,1.538,0,0,1,152.824,1809.4Zm-11.479,0a1.54,1.54,0,1,1,1.532-1.54A1.538,1.538,0,0,1,141.346,1809.4Zm-11.54,0a1.54,1.54,0,1,1,1.533-1.54A1.538,1.538,0,0,1,129.806,1809.4Zm-11.539,0a1.54,1.54,0,1,1,1.533-1.54A1.538,1.538,0,0,1,118.267,1809.4Zm-11.539,0a1.54,1.54,0,1,1,1.533-1.54A1.538,1.538,0,0,1,106.728,1809.4Zm-11.539,0a1.54,1.54,0,1,1,1.533-1.54A1.538,1.538,0,0,1,95.189,1809.4Zm-11.538,0a1.54,1.54,0,1,1,1.532-1.54A1.538,1.538,0,0,1,83.651,1809.4Zm-11.539,0a1.54,1.54,0,1,1,1.532-1.54A1.538,1.538,0,0,1,72.112,1809.4Zm-11.539,0a1.54,1.54,0,1,1,1.533-1.54A1.538,1.538,0,0,1,60.574,1809.4Zm-11.539,0a1.54,1.54,0,1,1,1.532-1.54A1.538,1.538,0,0,1,49.035,1809.4Zm-11.539,0a1.54,1.54,0,1,1,1.532-1.54A1.538,1.538,0,0,1,37.5,1809.4Zm213.41-5.672a1.539,1.539,0,1,1,1.532-1.539A1.538,1.538,0,0,1,250.906,1803.725Zm-11.541,0a1.539,1.539,0,1,1,1.534-1.539A1.537,1.537,0,0,1,239.365,1803.725Zm-11.538,0a1.539,1.539,0,1,1,1.533-1.539A1.537,1.537,0,0,1,227.827,1803.725Zm-11.539,0a1.539,1.539,0,1,1,1.533-1.539A1.537,1.537,0,0,1,216.288,1803.725Zm-11.539,0a1.539,1.539,0,1,1,1.533-1.539A1.537,1.537,0,0,1,204.749,1803.725Zm-11.538,0a1.539,1.539,0,1,1,1.532-1.539A1.538,1.538,0,0,1,193.211,1803.725Zm-11.539,0a1.539,1.539,0,1,1,1.533-1.539A1.538,1.538,0,0,1,181.672,1803.725Zm-11.539,0a1.539,1.539,0,1,1,1.532-1.539A1.538,1.538,0,0,1,170.133,1803.725Zm-11.539,0a1.539,1.539,0,1,1,1.532-1.539A1.538,1.538,0,0,1,158.594,1803.725Zm-11.539,0a1.539,1.539,0,1,1,1.532-1.539A1.538,1.538,0,0,1,147.055,1803.725Zm-11.479,0a1.539,1.539,0,1,1,1.533-1.539A1.537,1.537,0,0,1,135.576,1803.725Zm-11.539,0a1.539,1.539,0,1,1,1.533-1.539A1.537,1.537,0,0,1,124.037,1803.725Zm-11.539,0a1.539,1.539,0,1,1,1.533-1.539A1.537,1.537,0,0,1,112.5,1803.725Zm-11.539,0a1.539,1.539,0,1,1,1.533-1.539A1.537,1.537,0,0,1,100.959,1803.725Zm-11.539,0a1.539,1.539,0,1,1,1.533-1.539A1.537,1.537,0,0,1,89.42,1803.725Zm-11.539,0a1.539,1.539,0,1,1,1.533-1.539A1.537,1.537,0,0,1,77.881,1803.725Zm-11.539,0a1.539,1.539,0,1,1,1.533-1.539A1.538,1.538,0,0,1,66.343,1803.725Zm-11.539,0a1.539,1.539,0,1,1,1.532-1.539A1.538,1.538,0,0,1,54.8,1803.725Zm-11.539,0a1.539,1.539,0,1,1,1.532-1.539A1.538,1.538,0,0,1,43.265,1803.725Zm201.871-5.372a1.54,1.54,0,1,1,1.532-1.54A1.538,1.538,0,0,1,245.136,1798.353Zm-11.539,0a1.54,1.54,0,1,1,1.533-1.54A1.539,1.539,0,0,1,233.6,1798.353Zm-11.539,0a1.54,1.54,0,1,1,1.533-1.54A1.538,1.538,0,0,1,222.058,1798.353Zm-11.539,0a1.54,1.54,0,1,1,1.533-1.54A1.538,1.538,0,0,1,210.519,1798.353Zm-11.539,0a1.54,1.54,0,1,1,1.533-1.54A1.538,1.538,0,0,1,198.98,1798.353Zm-11.539,0a1.54,1.54,0,1,1,1.533-1.54A1.538,1.538,0,0,1,187.441,1798.353Zm-11.539,0a1.54,1.54,0,1,1,1.532-1.54A1.538,1.538,0,0,1,175.9,1798.353Zm-11.539,0a1.54,1.54,0,1,1,1.533-1.54A1.538,1.538,0,0,1,164.363,1798.353Zm-11.539,0a1.54,1.54,0,1,1,1.533-1.54A1.538,1.538,0,0,1,152.824,1798.353Zm-11.539,0a1.54,1.54,0,1,1,1.532-1.54A1.538,1.538,0,0,1,141.286,1798.353Zm-11.48,0a1.54,1.54,0,1,1,1.533-1.54A1.538,1.538,0,0,1,129.806,1798.353Zm-11.539,0a1.54,1.54,0,1,1,1.533-1.54A1.538,1.538,0,0,1,118.267,1798.353Zm-11.539,0a1.54,1.54,0,1,1,1.533-1.54A1.538,1.538,0,0,1,106.728,1798.353Zm-11.539,0a1.54,1.54,0,1,1,1.533-1.54A1.538,1.538,0,0,1,95.189,1798.353Zm-11.539,0a1.54,1.54,0,1,1,1.533-1.54A1.538,1.538,0,0,1,83.65,1798.353Zm-11.539,0a1.54,1.54,0,1,1,1.533-1.54A1.538,1.538,0,0,1,72.112,1798.353Zm-11.538,0a1.54,1.54,0,1,1,1.533-1.54A1.538,1.538,0,0,1,60.574,1798.353Zm-11.539,0a1.54,1.54,0,1,1,1.532-1.54A1.538,1.538,0,0,1,49.035,1798.353Zm-11.539,0a1.54,1.54,0,1,1,1.532-1.54A1.538,1.538,0,0,1,37.5,1798.353Zm213.41-5.28a1.54,1.54,0,1,1,1.532-1.54A1.538,1.538,0,0,1,250.906,1793.073Zm-11.541,0a1.54,1.54,0,1,1,1.534-1.54A1.538,1.538,0,0,1,239.365,1793.073Zm-11.538,0a1.54,1.54,0,1,1,1.533-1.54A1.538,1.538,0,0,1,227.827,1793.073Zm-11.539,0a1.54,1.54,0,1,1,1.533-1.54A1.538,1.538,0,0,1,216.288,1793.073Zm-11.538,0a1.54,1.54,0,1,1,1.532-1.54A1.538,1.538,0,0,1,204.75,1793.073Zm-11.539,0a1.54,1.54,0,1,1,1.532-1.54A1.538,1.538,0,0,1,193.211,1793.073Zm-11.54,0a1.54,1.54,0,1,1,1.533-1.54A1.537,1.537,0,0,1,181.671,1793.073Zm-11.539,0a1.54,1.54,0,1,1,1.533-1.54A1.537,1.537,0,0,1,170.132,1793.073Zm-11.539,0a1.54,1.54,0,1,1,1.533-1.54A1.537,1.537,0,0,1,158.593,1793.073Zm-11.539,0a1.54,1.54,0,1,1,1.533-1.54A1.537,1.537,0,0,1,147.055,1793.073Zm-11.479-.462a1.54,1.54,0,1,1,1.533-1.541A1.538,1.538,0,0,1,135.576,1792.611Zm-11.539,0a1.54,1.54,0,1,1,1.533-1.541A1.538,1.538,0,0,1,124.037,1792.611Zm-11.539,0a1.54,1.54,0,1,1,1.533-1.541A1.538,1.538,0,0,1,112.5,1792.611Zm-11.539,0a1.54,1.54,0,1,1,1.533-1.541A1.538,1.538,0,0,1,100.959,1792.611Zm-11.539,0a1.54,1.54,0,1,1,1.533-1.541A1.538,1.538,0,0,1,89.42,1792.611Zm-11.539,0a1.54,1.54,0,1,1,1.533-1.541A1.538,1.538,0,0,1,77.881,1792.611Zm-11.539,0a1.54,1.54,0,1,1,1.533-1.541A1.538,1.538,0,0,1,66.343,1792.611Zm-11.539,0a1.54,1.54,0,1,1,1.532-1.541A1.538,1.538,0,0,1,54.8,1792.611Zm-11.539,0a1.54,1.54,0,1,1,1.532-1.541A1.539,1.539,0,0,1,43.265,1792.611Zm201.871-5.207a1.54,1.54,0,1,1,1.532-1.541A1.538,1.538,0,0,1,245.136,1787.4Zm-11.539,0a1.54,1.54,0,1,1,1.533-1.541A1.538,1.538,0,0,1,233.6,1787.4Zm-11.539,0a1.54,1.54,0,1,1,1.533-1.541A1.538,1.538,0,0,1,222.058,1787.4Zm-11.539,0a1.54,1.54,0,1,1,1.533-1.541A1.538,1.538,0,0,1,210.519,1787.4Zm-11.539,0a1.54,1.54,0,1,1,1.533-1.541A1.538,1.538,0,0,1,198.98,1787.4Zm-11.539,0a1.54,1.54,0,1,1,1.533-1.541A1.539,1.539,0,0,1,187.441,1787.4Zm-11.539,0a1.54,1.54,0,1,1,1.533-1.541A1.539,1.539,0,0,1,175.9,1787.4Zm-11.539,0a1.54,1.54,0,1,1,1.532-1.541A1.539,1.539,0,0,1,164.363,1787.4Zm-11.539,0a1.54,1.54,0,1,1,1.532-1.541A1.539,1.539,0,0,1,152.824,1787.4Zm-11.539,0a1.54,1.54,0,1,1,1.532-1.541A1.539,1.539,0,0,1,141.286,1787.4Zm-11.48-.464a1.54,1.54,0,1,1,1.533-1.54A1.538,1.538,0,0,1,129.806,1786.94Zm-11.539,0a1.54,1.54,0,1,1,1.533-1.54A1.538,1.538,0,0,1,118.267,1786.94Zm-11.539,0a1.54,1.54,0,1,1,1.533-1.54A1.538,1.538,0,0,1,106.728,1786.94Zm-11.539,0a1.54,1.54,0,1,1,1.533-1.54A1.538,1.538,0,0,1,95.189,1786.94Zm-11.539,0a1.54,1.54,0,1,1,1.533-1.54A1.538,1.538,0,0,1,83.65,1786.94Zm-11.539,0a1.54,1.54,0,1,1,1.533-1.54A1.538,1.538,0,0,1,72.112,1786.94Zm-11.538,0a1.54,1.54,0,1,1,1.533-1.54A1.538,1.538,0,0,1,60.574,1786.94Zm-11.539,0a1.54,1.54,0,1,1,1.532-1.54A1.538,1.538,0,0,1,49.035,1786.94Zm-11.539,0a1.54,1.54,0,1,1,1.532-1.54A1.538,1.538,0,0,1,37.5,1786.94Zm213.41-5.076a1.541,1.541,0,1,1,1.532-1.541A1.539,1.539,0,0,1,250.906,1781.864Zm-11.541,0a1.541,1.541,0,1,1,1.534-1.541A1.538,1.538,0,0,1,239.365,1781.864Zm-11.538,0a1.541,1.541,0,1,1,1.533-1.541A1.538,1.538,0,0,1,227.827,1781.864Zm-11.539,0a1.541,1.541,0,1,1,1.533-1.541A1.538,1.538,0,0,1,216.288,1781.864Zm-11.539,0a1.541,1.541,0,1,1,1.533-1.541A1.538,1.538,0,0,1,204.749,1781.864Zm-11.538,0a1.541,1.541,0,1,1,1.532-1.541A1.539,1.539,0,0,1,193.211,1781.864Zm-11.539,0a1.541,1.541,0,1,1,1.533-1.541A1.539,1.539,0,0,1,181.672,1781.864Zm-11.539,0a1.541,1.541,0,1,1,1.532-1.541A1.539,1.539,0,0,1,170.133,1781.864Zm-11.539,0a1.541,1.541,0,1,1,1.532-1.541A1.539,1.539,0,0,1,158.594,1781.864Zm-11.539,0a1.541,1.541,0,1,1,1.532-1.541A1.539,1.539,0,0,1,147.055,1781.864Zm-11.479-.464a1.54,1.54,0,1,1,1.533-1.541A1.538,1.538,0,0,1,135.576,1781.4Zm-11.539,0a1.54,1.54,0,1,1,1.533-1.541A1.538,1.538,0,0,1,124.037,1781.4Zm-11.539,0a1.54,1.54,0,1,1,1.533-1.541A1.538,1.538,0,0,1,112.5,1781.4Zm-11.539,0a1.54,1.54,0,1,1,1.533-1.541A1.538,1.538,0,0,1,100.959,1781.4Zm-11.539,0a1.54,1.54,0,1,1,1.533-1.541A1.538,1.538,0,0,1,89.42,1781.4Zm-11.539,0a1.54,1.54,0,1,1,1.533-1.541A1.538,1.538,0,0,1,77.881,1781.4Zm-11.539,0a1.54,1.54,0,1,1,1.533-1.541A1.538,1.538,0,0,1,66.343,1781.4Zm-11.539,0a1.54,1.54,0,1,1,1.532-1.541A1.538,1.538,0,0,1,54.8,1781.4Zm-11.539,0a1.54,1.54,0,1,1,1.532-1.541A1.538,1.538,0,0,1,43.265,1781.4Zm201.871-5.284a1.539,1.539,0,1,1,1.532-1.54A1.537,1.537,0,0,1,245.136,1776.117Zm-11.539,0a1.539,1.539,0,1,1,1.533-1.54A1.537,1.537,0,0,1,233.6,1776.117Zm-11.539,0a1.539,1.539,0,1,1,1.533-1.54A1.538,1.538,0,0,1,222.058,1776.117Zm-11.539,0a1.539,1.539,0,1,1,1.533-1.54A1.538,1.538,0,0,1,210.519,1776.117Zm-11.539,0a1.539,1.539,0,1,1,1.533-1.54A1.537,1.537,0,0,1,198.98,1776.117Zm-11.539,0a1.539,1.539,0,1,1,1.533-1.54A1.538,1.538,0,0,1,187.441,1776.117Zm-11.539,0a1.539,1.539,0,1,1,1.533-1.54A1.538,1.538,0,0,1,175.9,1776.117Zm-11.539,0a1.539,1.539,0,1,1,1.532-1.54A1.538,1.538,0,0,1,164.363,1776.117Zm-11.539,0a1.539,1.539,0,1,1,1.532-1.54A1.538,1.538,0,0,1,152.824,1776.117Zm-11.479-.463a1.54,1.54,0,1,1,1.532-1.54A1.538,1.538,0,0,1,141.346,1775.654Zm-11.54,0a1.54,1.54,0,1,1,1.533-1.54A1.538,1.538,0,0,1,129.806,1775.654Zm-11.539,0a1.54,1.54,0,1,1,1.533-1.54A1.538,1.538,0,0,1,118.267,1775.654Zm-11.539,0a1.54,1.54,0,1,1,1.533-1.54A1.538,1.538,0,0,1,106.728,1775.654Zm-11.539,0a1.54,1.54,0,1,1,1.533-1.54A1.538,1.538,0,0,1,95.189,1775.654Zm-11.538,0a1.54,1.54,0,1,1,1.533-1.54A1.538,1.538,0,0,1,83.651,1775.654Zm-11.539,0a1.54,1.54,0,1,1,1.532-1.54A1.538,1.538,0,0,1,72.112,1775.654Zm-11.539,0a1.54,1.54,0,1,1,1.533-1.54A1.538,1.538,0,0,1,60.574,1775.654Zm-11.539,0a1.54,1.54,0,1,1,1.532-1.54A1.538,1.538,0,0,1,49.035,1775.654Zm-11.539,0a1.54,1.54,0,1,1,1.532-1.54A1.538,1.538,0,0,1,37.5,1775.654Zm213.41-5.208a1.539,1.539,0,1,1,1.532-1.539A1.538,1.538,0,0,1,250.906,1770.446Zm-11.541,0a1.539,1.539,0,1,1,1.534-1.539A1.537,1.537,0,0,1,239.365,1770.446Zm-11.538,0a1.539,1.539,0,1,1,1.533-1.539A1.537,1.537,0,0,1,227.827,1770.446Zm-11.539,0a1.539,1.539,0,1,1,1.533-1.539A1.537,1.537,0,0,1,216.288,1770.446Zm-11.539,0a1.539,1.539,0,1,1,1.533-1.539A1.537,1.537,0,0,1,204.749,1770.446Zm-11.538,0a1.539,1.539,0,1,1,1.532-1.539A1.538,1.538,0,0,1,193.211,1770.446Zm-11.539,0a1.539,1.539,0,1,1,1.533-1.539A1.538,1.538,0,0,1,181.672,1770.446Zm-11.539,0a1.539,1.539,0,1,1,1.532-1.539A1.538,1.538,0,0,1,170.133,1770.446Zm-11.539,0a1.539,1.539,0,1,1,1.532-1.539A1.538,1.538,0,0,1,158.594,1770.446Zm-11.539,0a1.539,1.539,0,1,1,1.532-1.539A1.538,1.538,0,0,1,147.055,1770.446Zm-11.479-.463a1.54,1.54,0,1,1,1.533-1.54A1.538,1.538,0,0,1,135.576,1769.983Zm-11.539,0a1.54,1.54,0,1,1,1.533-1.54A1.538,1.538,0,0,1,124.037,1769.983Zm-11.539,0a1.54,1.54,0,1,1,1.533-1.54A1.538,1.538,0,0,1,112.5,1769.983Zm-11.539,0a1.54,1.54,0,1,1,1.533-1.54A1.538,1.538,0,0,1,100.959,1769.983Zm-11.539,0a1.54,1.54,0,1,1,1.533-1.54A1.538,1.538,0,0,1,89.42,1769.983Zm-11.539,0a1.54,1.54,0,1,1,1.533-1.54A1.538,1.538,0,0,1,77.881,1769.983Zm-11.539,0a1.54,1.54,0,1,1,1.533-1.54A1.538,1.538,0,0,1,66.343,1769.983Zm-11.539,0a1.54,1.54,0,1,1,1.532-1.54A1.538,1.538,0,0,1,54.8,1769.983Zm-11.539,0a1.54,1.54,0,1,1,1.532-1.54A1.538,1.538,0,0,1,43.265,1769.983Zm201.871-5.138a1.54,1.54,0,1,1,1.532-1.541A1.538,1.538,0,0,1,245.136,1764.845Zm-11.539,0a1.54,1.54,0,1,1,1.533-1.54A1.538,1.538,0,0,1,233.6,1764.845Zm-11.539,0a1.54,1.54,0,1,1,1.533-1.54A1.538,1.538,0,0,1,222.058,1764.845Zm-11.539,0a1.54,1.54,0,1,1,1.533-1.541A1.538,1.538,0,0,1,210.519,1764.845Zm-11.539,0a1.54,1.54,0,1,1,1.533-1.54A1.538,1.538,0,0,1,198.98,1764.845Zm-11.539,0a1.54,1.54,0,1,1,1.533-1.54A1.538,1.538,0,0,1,187.441,1764.845Zm-11.539,0a1.54,1.54,0,1,1,1.533-1.541A1.539,1.539,0,0,1,175.9,1764.845Zm-11.539,0a1.54,1.54,0,1,1,1.533-1.54A1.538,1.538,0,0,1,164.363,1764.845Zm-11.539,0a1.54,1.54,0,1,1,1.532-1.541A1.539,1.539,0,0,1,152.824,1764.845Zm-11.539,0a1.54,1.54,0,1,1,1.532-1.541A1.539,1.539,0,0,1,141.286,1764.845Zm-11.48-.462a1.54,1.54,0,1,1,1.533-1.541A1.538,1.538,0,0,1,129.806,1764.383Zm-11.539,0a1.54,1.54,0,1,1,1.533-1.541A1.538,1.538,0,0,1,118.267,1764.383Zm-11.539,0a1.54,1.54,0,1,1,1.533-1.541A1.538,1.538,0,0,1,106.728,1764.383Zm-11.539,0a1.54,1.54,0,1,1,1.533-1.541A1.538,1.538,0,0,1,95.189,1764.383Zm-11.539,0a1.54,1.54,0,1,1,1.534-1.541A1.538,1.538,0,0,1,83.65,1764.383Zm-11.539,0a1.54,1.54,0,1,1,1.533-1.541A1.538,1.538,0,0,1,72.112,1764.383Zm-11.538,0a1.54,1.54,0,1,1,1.533-1.541A1.539,1.539,0,0,1,60.574,1764.383Zm-11.539,0a1.54,1.54,0,1,1,1.532-1.541A1.539,1.539,0,0,1,49.035,1764.383Zm-11.539,0a1.54,1.54,0,1,1,1.532-1.541A1.539,1.539,0,0,1,37.5,1764.383Zm213.41-5.284a1.54,1.54,0,1,1,1.532-1.54A1.538,1.538,0,0,1,250.906,1759.1Zm-11.541,0a1.54,1.54,0,1,1,1.534-1.54A1.538,1.538,0,0,1,239.365,1759.1Zm-11.538,0a1.54,1.54,0,1,1,1.533-1.54A1.538,1.538,0,0,1,227.827,1759.1Zm-11.539,0a1.54,1.54,0,1,1,1.533-1.54A1.538,1.538,0,0,1,216.288,1759.1Zm-11.539,0a1.54,1.54,0,1,1,1.533-1.54A1.538,1.538,0,0,1,204.749,1759.1Zm-11.538,0a1.54,1.54,0,1,1,1.532-1.54A1.538,1.538,0,0,1,193.211,1759.1Zm-11.539,0a1.54,1.54,0,1,1,1.533-1.54A1.539,1.539,0,0,1,181.672,1759.1Zm-11.539,0a1.54,1.54,0,1,1,1.532-1.54A1.538,1.538,0,0,1,170.133,1759.1Zm-11.539,0a1.54,1.54,0,1,1,1.532-1.54A1.538,1.538,0,0,1,158.594,1759.1Zm-11.539,0a1.54,1.54,0,1,1,1.532-1.54A1.538,1.538,0,0,1,147.055,1759.1Zm-11.479-.462a1.54,1.54,0,1,1,1.533-1.541A1.538,1.538,0,0,1,135.576,1758.637Zm-11.539,0a1.54,1.54,0,1,1,1.533-1.541A1.538,1.538,0,0,1,124.037,1758.637Zm-11.539,0a1.54,1.54,0,1,1,1.533-1.541A1.538,1.538,0,0,1,112.5,1758.637Zm-11.539,0a1.54,1.54,0,1,1,1.533-1.541A1.538,1.538,0,0,1,100.959,1758.637Zm-11.539,0a1.54,1.54,0,1,1,1.533-1.541A1.538,1.538,0,0,1,89.42,1758.637Zm-11.539,0a1.54,1.54,0,1,1,1.533-1.541A1.538,1.538,0,0,1,77.881,1758.637Zm-11.539,0a1.54,1.54,0,1,1,1.533-1.541A1.538,1.538,0,0,1,66.343,1758.637Zm-11.539,0a1.54,1.54,0,1,1,1.532-1.541A1.538,1.538,0,0,1,54.8,1758.637Zm-11.539,0A1.54,1.54,0,1,1,44.8,1757.1,1.538,1.538,0,0,1,43.265,1758.637Zm201.871-5.209a1.539,1.539,0,1,1,1.532-1.539A1.537,1.537,0,0,1,245.136,1753.428Zm-11.539,0a1.54,1.54,0,1,1,1.533-1.54A1.538,1.538,0,0,1,233.6,1753.428Zm-11.539,0a1.54,1.54,0,1,1,1.533-1.54A1.538,1.538,0,0,1,222.058,1753.428Zm-11.539,0a1.539,1.539,0,1,1,1.533-1.539A1.537,1.537,0,0,1,210.519,1753.428Zm-11.539,0a1.54,1.54,0,1,1,1.533-1.54A1.538,1.538,0,0,1,198.98,1753.428Zm-11.539,0a1.54,1.54,0,1,1,1.533-1.54A1.538,1.538,0,0,1,187.441,1753.428Zm-11.539,0a1.539,1.539,0,1,1,1.533-1.539A1.538,1.538,0,0,1,175.9,1753.428Zm-11.539,0a1.54,1.54,0,1,1,1.533-1.54A1.538,1.538,0,0,1,164.363,1753.428Zm-11.539,0a1.54,1.54,0,1,1,1.533-1.54A1.538,1.538,0,0,1,152.824,1753.428Zm-11.539,0a1.539,1.539,0,1,1,1.532-1.539A1.538,1.538,0,0,1,141.286,1753.428Zm-11.48-.463a1.54,1.54,0,1,1,1.533-1.54A1.538,1.538,0,0,1,129.806,1752.965Zm-11.539,0a1.54,1.54,0,1,1,1.533-1.54A1.538,1.538,0,0,1,118.267,1752.965Zm-11.539,0a1.54,1.54,0,1,1,1.533-1.54A1.538,1.538,0,0,1,106.728,1752.965Zm-11.539,0a1.54,1.54,0,1,1,1.533-1.54A1.538,1.538,0,0,1,95.189,1752.965Zm-11.539,0a1.54,1.54,0,1,1,1.534-1.54A1.538,1.538,0,0,1,83.65,1752.965Zm-11.539,0a1.54,1.54,0,1,1,1.533-1.54A1.538,1.538,0,0,1,72.112,1752.965Zm-11.538,0a1.54,1.54,0,1,1,1.533-1.54A1.538,1.538,0,0,1,60.574,1752.965Zm-11.539,0a1.54,1.54,0,1,1,1.532-1.54A1.538,1.538,0,0,1,49.035,1752.965Zm-11.539,0a1.54,1.54,0,1,1,1.532-1.54A1.538,1.538,0,0,1,37.5,1752.965Zm213.41-5.261a1.539,1.539,0,1,1,1.532-1.539A1.538,1.538,0,0,1,250.906,1747.7Zm-11.541,0a1.539,1.539,0,1,1,1.534-1.539A1.537,1.537,0,0,1,239.365,1747.7Zm-11.538,0a1.539,1.539,0,1,1,1.533-1.539A1.537,1.537,0,0,1,227.827,1747.7Zm-11.539,0a1.539,1.539,0,1,1,1.533-1.539A1.537,1.537,0,0,1,216.288,1747.7Zm-11.539,0a1.539,1.539,0,1,1,1.533-1.539A1.537,1.537,0,0,1,204.749,1747.7Zm-11.538,0a1.539,1.539,0,1,1,1.532-1.539A1.538,1.538,0,0,1,193.211,1747.7Zm-11.539,0a1.539,1.539,0,1,1,1.533-1.539A1.538,1.538,0,0,1,181.672,1747.7Zm-11.539,0a1.539,1.539,0,1,1,1.532-1.539A1.538,1.538,0,0,1,170.133,1747.7Zm-11.539,0a1.539,1.539,0,1,1,1.532-1.539A1.538,1.538,0,0,1,158.594,1747.7Zm-11.539,0a1.539,1.539,0,1,1,1.532-1.539A1.538,1.538,0,0,1,147.055,1747.7Zm-11.479-.463a1.54,1.54,0,1,1,1.533-1.54A1.538,1.538,0,0,1,135.576,1747.241Zm-11.539,0a1.54,1.54,0,1,1,1.533-1.54A1.538,1.538,0,0,1,124.037,1747.241Zm-11.539,0a1.54,1.54,0,1,1,1.533-1.54A1.538,1.538,0,0,1,112.5,1747.241Zm-11.539,0a1.54,1.54,0,1,1,1.533-1.54A1.538,1.538,0,0,1,100.959,1747.241Zm-11.539,0a1.54,1.54,0,1,1,1.533-1.54A1.538,1.538,0,0,1,89.42,1747.241Zm-11.539,0a1.54,1.54,0,1,1,1.533-1.54A1.538,1.538,0,0,1,77.881,1747.241Zm-11.539,0a1.54,1.54,0,1,1,1.533-1.54A1.538,1.538,0,0,1,66.343,1747.241Zm-11.539,0a1.54,1.54,0,1,1,1.532-1.54A1.538,1.538,0,0,1,54.8,1747.241Zm-11.539,0a1.54,1.54,0,1,1,1.532-1.54A1.538,1.538,0,0,1,43.265,1747.241Zm201.871-5.283a1.54,1.54,0,1,1,1.532-1.54A1.538,1.538,0,0,1,245.136,1741.958Zm-11.539,0a1.54,1.54,0,1,1,1.533-1.54A1.538,1.538,0,0,1,233.6,1741.958Zm-11.539,0a1.54,1.54,0,1,1,1.533-1.54A1.538,1.538,0,0,1,222.058,1741.958Zm-11.539,0a1.54,1.54,0,1,1,1.533-1.54A1.538,1.538,0,0,1,210.519,1741.958Zm-11.539,0a1.54,1.54,0,1,1,1.533-1.54A1.538,1.538,0,0,1,198.98,1741.958Zm-11.539,0a1.54,1.54,0,1,1,1.533-1.54A1.538,1.538,0,0,1,187.441,1741.958Zm-11.539,0a1.54,1.54,0,1,1,1.533-1.54A1.538,1.538,0,0,1,175.9,1741.958Zm-11.539,0a1.54,1.54,0,1,1,1.533-1.54A1.538,1.538,0,0,1,164.363,1741.958Zm-11.539,0a1.54,1.54,0,1,1,1.532-1.54A1.538,1.538,0,0,1,152.824,1741.958Zm-11.479-.463a1.54,1.54,0,1,1,1.532-1.54A1.538,1.538,0,0,1,141.346,1741.5Zm-11.54,0a1.54,1.54,0,1,1,1.533-1.54A1.538,1.538,0,0,1,129.806,1741.5Zm-11.539,0a1.54,1.54,0,1,1,1.533-1.54A1.538,1.538,0,0,1,118.267,1741.5Zm-11.539,0a1.54,1.54,0,1,1,1.533-1.54A1.538,1.538,0,0,1,106.728,1741.5Zm-11.539,0a1.54,1.54,0,1,1,1.533-1.54A1.538,1.538,0,0,1,95.189,1741.5Zm-11.538,0a1.54,1.54,0,1,1,1.533-1.54A1.538,1.538,0,0,1,83.651,1741.5Zm-11.539,0a1.54,1.54,0,1,1,1.532-1.54A1.538,1.538,0,0,1,72.112,1741.5Zm-11.539,0a1.54,1.54,0,1,1,1.533-1.54A1.538,1.538,0,0,1,60.574,1741.5Zm-11.539,0a1.54,1.54,0,1,1,1.532-1.54A1.538,1.538,0,0,1,49.035,1741.5Zm-11.539,0a1.54,1.54,0,1,1,1.532-1.54A1.538,1.538,0,0,1,37.5,1741.5Zm213.41-5.207a1.54,1.54,0,1,1,1.532-1.541A1.538,1.538,0,0,1,250.906,1736.288Zm-11.541,0a1.54,1.54,0,1,1,1.534-1.541A1.538,1.538,0,0,1,239.365,1736.288Zm-11.538,0a1.54,1.54,0,1,1,1.533-1.541A1.538,1.538,0,0,1,227.827,1736.288Zm-11.539,0a1.54,1.54,0,1,1,1.533-1.541A1.538,1.538,0,0,1,216.288,1736.288Zm-11.539,0a1.54,1.54,0,1,1,1.533-1.541A1.538,1.538,0,0,1,204.749,1736.288Zm-11.538,0a1.54,1.54,0,1,1,1.532-1.541A1.538,1.538,0,0,1,193.211,1736.288Zm-11.539,0a1.54,1.54,0,1,1,1.533-1.541A1.539,1.539,0,0,1,181.672,1736.288Zm-11.539,0a1.54,1.54,0,1,1,1.532-1.541A1.538,1.538,0,0,1,170.133,1736.288Zm-11.539,0a1.54,1.54,0,1,1,1.532-1.541A1.538,1.538,0,0,1,158.594,1736.288Zm-11.539,0a1.54,1.54,0,1,1,1.532-1.541A1.538,1.538,0,0,1,147.055,1736.288Zm-11.479-.463a1.54,1.54,0,1,1,1.533-1.541A1.538,1.538,0,0,1,135.576,1735.826Zm-11.539,0a1.54,1.54,0,1,1,1.533-1.541A1.538,1.538,0,0,1,124.037,1735.826Zm-11.539,0a1.54,1.54,0,1,1,1.533-1.541A1.538,1.538,0,0,1,112.5,1735.826Zm-11.539,0a1.54,1.54,0,1,1,1.533-1.541A1.538,1.538,0,0,1,100.959,1735.826Zm-11.539,0a1.54,1.54,0,1,1,1.533-1.541A1.538,1.538,0,0,1,89.42,1735.826Zm-11.539,0a1.54,1.54,0,1,1,1.533-1.541A1.538,1.538,0,0,1,77.881,1735.826Zm-11.539,0a1.54,1.54,0,1,1,1.533-1.541A1.539,1.539,0,0,1,66.343,1735.826Zm-11.539,0a1.54,1.54,0,1,1,1.532-1.541A1.539,1.539,0,0,1,54.8,1735.826Zm-11.539,0a1.54,1.54,0,1,1,1.532-1.541A1.539,1.539,0,0,1,43.265,1735.826Zm201.871-4.911a1.539,1.539,0,1,1,1.532-1.539A1.537,1.537,0,0,1,245.136,1730.914Zm-11.539,0a1.539,1.539,0,1,1,1.533-1.539A1.537,1.537,0,0,1,233.6,1730.914Zm-11.539,0a1.54,1.54,0,1,1,1.533-1.54A1.538,1.538,0,0,1,222.058,1730.914Zm-11.539,0a1.539,1.539,0,1,1,1.533-1.539A1.537,1.537,0,0,1,210.519,1730.914Zm-11.539,0a1.54,1.54,0,1,1,1.533-1.54A1.538,1.538,0,0,1,198.98,1730.914Zm-11.539,0a1.54,1.54,0,1,1,1.533-1.54A1.538,1.538,0,0,1,187.441,1730.914Zm-11.539,0a1.54,1.54,0,1,1,1.532-1.54A1.538,1.538,0,0,1,175.9,1730.914Zm-11.539,0a1.54,1.54,0,1,1,1.533-1.54A1.538,1.538,0,0,1,164.363,1730.914Zm-11.539,0a1.54,1.54,0,1,1,1.533-1.54A1.538,1.538,0,0,1,152.824,1730.914Zm-11.539,0a1.539,1.539,0,1,1,1.532-1.539A1.538,1.538,0,0,1,141.286,1730.914Zm-11.48-.463a1.54,1.54,0,1,1,1.533-1.54A1.538,1.538,0,0,1,129.806,1730.452Zm-11.539,0a1.54,1.54,0,1,1,1.533-1.54A1.538,1.538,0,0,1,118.267,1730.452Zm-11.539,0a1.54,1.54,0,1,1,1.533-1.54A1.538,1.538,0,0,1,106.728,1730.452Zm-11.539,0a1.54,1.54,0,1,1,1.533-1.54A1.538,1.538,0,0,1,95.189,1730.452Zm-11.539,0a1.54,1.54,0,1,1,1.533-1.54A1.538,1.538,0,0,1,83.65,1730.452Zm-11.539,0a1.54,1.54,0,1,1,1.533-1.54A1.538,1.538,0,0,1,72.112,1730.452Zm-11.538,0a1.54,1.54,0,1,1,1.533-1.54A1.538,1.538,0,0,1,60.574,1730.452Zm-11.539,0a1.54,1.54,0,1,1,1.532-1.54A1.538,1.538,0,0,1,49.035,1730.452Zm-11.539,0a1.54,1.54,0,1,1,1.532-1.54A1.538,1.538,0,0,1,37.5,1730.452Zm201.871-4.484a1.54,1.54,0,1,1,1.532-1.54A1.539,1.539,0,0,1,239.367,1725.968Zm-11.539,0a1.54,1.54,0,1,1,1.532-1.54A1.538,1.538,0,0,1,227.828,1725.968Zm-23.078,0a1.54,1.54,0,1,1,1.532-1.54A1.538,1.538,0,0,1,204.75,1725.968Zm-11.539,0a1.54,1.54,0,1,1,1.532-1.54A1.538,1.538,0,0,1,193.211,1725.968Zm-11.54,0a1.54,1.54,0,1,1,1.533-1.54A1.538,1.538,0,0,1,181.671,1725.968Zm-11.539,0a1.54,1.54,0,1,1,1.533-1.54A1.538,1.538,0,0,1,170.132,1725.968Zm-11.539,0a1.54,1.54,0,1,1,1.533-1.54A1.538,1.538,0,0,1,158.593,1725.968Zm92.312,0a1.539,1.539,0,1,1,1.532-1.539A1.538,1.538,0,0,1,250.906,1725.967Zm-34.618,0a1.539,1.539,0,1,1,1.533-1.539A1.537,1.537,0,0,1,216.288,1725.967Zm-69.233,0a1.539,1.539,0,1,1,1.532-1.539A1.538,1.538,0,0,1,147.055,1725.967Zm-11.479-.463a1.54,1.54,0,1,1,1.533-1.54A1.538,1.538,0,0,1,135.576,1725.5Zm-11.539,0a1.54,1.54,0,1,1,1.533-1.54A1.538,1.538,0,0,1,124.037,1725.5Zm-11.539,0a1.54,1.54,0,1,1,1.533-1.54A1.538,1.538,0,0,1,112.5,1725.5Zm-11.539,0a1.54,1.54,0,1,1,1.533-1.54A1.538,1.538,0,0,1,100.959,1725.5Zm-11.539,0a1.54,1.54,0,1,1,1.533-1.54A1.538,1.538,0,0,1,89.42,1725.5Zm-11.539,0a1.54,1.54,0,1,1,1.533-1.54A1.538,1.538,0,0,1,77.881,1725.5Zm-11.539,0a1.54,1.54,0,1,1,1.533-1.54A1.538,1.538,0,0,1,66.343,1725.5Zm-11.539,0a1.54,1.54,0,1,1,1.532-1.54A1.538,1.538,0,0,1,54.8,1725.5Zm-11.539,0a1.54,1.54,0,1,1,1.532-1.54A1.538,1.538,0,0,1,43.265,1725.5Zm274.727-167.63a1.54,1.54,0,1,1,1.532-1.54A1.538,1.538,0,0,1,317.992,1557.875Zm-11.54,0a1.54,1.54,0,1,1,1.532-1.54A1.538,1.538,0,0,1,306.452,1557.875Zm-11.538,0a1.54,1.54,0,1,1,1.532-1.54A1.538,1.538,0,0,1,294.914,1557.875Zm-11.539,0a1.54,1.54,0,1,1,1.532-1.54A1.538,1.538,0,0,1,283.375,1557.875Zm-11.539,0a1.54,1.54,0,1,1,1.532-1.54A1.539,1.539,0,0,1,271.836,1557.875Zm-11.54,0a1.54,1.54,0,1,1,1.533-1.54A1.538,1.538,0,0,1,260.3,1557.875Zm-11.539,0a1.54,1.54,0,1,1,1.533-1.54A1.538,1.538,0,0,1,248.757,1557.875Zm-11.54,0a1.54,1.54,0,1,1,1.534-1.54A1.538,1.538,0,0,1,237.217,1557.875Zm-11.538,0a1.54,1.54,0,1,1,1.533-1.54A1.538,1.538,0,0,1,225.679,1557.875Zm-11.539,0a1.54,1.54,0,1,1,1.533-1.54A1.538,1.538,0,0,1,214.141,1557.875Zm-11.538,0a1.54,1.54,0,1,1,1.532-1.54A1.538,1.538,0,0,1,202.6,1557.875Zm-11.539,0a1.54,1.54,0,1,1,1.532-1.54A1.538,1.538,0,0,1,191.064,1557.875Zm-11.539,0a1.54,1.54,0,1,1,1.532-1.54A1.538,1.538,0,0,1,179.525,1557.875Zm-11.48,0a1.54,1.54,0,1,1,1.533-1.54A1.538,1.538,0,0,1,168.045,1557.875Zm-11.539,0a1.54,1.54,0,1,1,1.533-1.54A1.538,1.538,0,0,1,156.506,1557.875Zm-11.539,0a1.54,1.54,0,1,1,1.533-1.54A1.538,1.538,0,0,1,144.967,1557.875Zm-11.539,0a1.54,1.54,0,1,1,1.533-1.54A1.538,1.538,0,0,1,133.429,1557.875Zm-11.539,0a1.54,1.54,0,1,1,1.533-1.54A1.538,1.538,0,0,1,121.89,1557.875Zm-11.539,0a1.54,1.54,0,1,1,1.533-1.54A1.538,1.538,0,0,1,110.351,1557.875Zm-11.539,0a1.54,1.54,0,1,1,1.533-1.54A1.538,1.538,0,0,1,98.812,1557.875Zm-11.539,0a1.54,1.54,0,1,1,1.533-1.54A1.538,1.538,0,0,1,87.273,1557.875Zm-11.539,0a1.54,1.54,0,1,1,1.533-1.54A1.538,1.538,0,0,1,75.734,1557.875Zm-11.539,0a1.54,1.54,0,1,1,1.532-1.54A1.538,1.538,0,0,1,64.2,1557.875Zm-11.539,0a1.54,1.54,0,1,1,1.532-1.54A1.538,1.538,0,0,1,52.656,1557.875Zm-11.539,0a1.54,1.54,0,1,1,1.533-1.54A1.538,1.538,0,0,1,41.117,1557.875Zm282.643-5.723a1.54,1.54,0,1,1,1.533-1.54A1.538,1.538,0,0,1,323.761,1552.152Zm-11.539,0a1.54,1.54,0,1,1,1.532-1.54A1.538,1.538,0,0,1,312.222,1552.152Zm-11.539,0a1.54,1.54,0,1,1,1.532-1.54A1.539,1.539,0,0,1,300.683,1552.152Zm-11.538,0a1.54,1.54,0,1,1,1.531-1.54A1.539,1.539,0,0,1,289.145,1552.152Zm-11.54,0a1.54,1.54,0,1,1,1.532-1.54A1.538,1.538,0,0,1,277.605,1552.152Zm-11.539,0a1.54,1.54,0,1,1,1.533-1.54A1.538,1.538,0,0,1,266.066,1552.152Zm-11.539,0a1.54,1.54,0,1,1,1.533-1.54A1.538,1.538,0,0,1,254.527,1552.152Zm-11.539,0a1.54,1.54,0,1,1,1.532-1.54A1.538,1.538,0,0,1,242.988,1552.152Zm-11.539,0a1.54,1.54,0,1,1,1.533-1.54A1.538,1.538,0,0,1,231.449,1552.152Zm-11.539,0a1.54,1.54,0,1,1,1.533-1.54A1.538,1.538,0,0,1,219.91,1552.152Zm-11.539,0a1.54,1.54,0,1,1,1.533-1.54A1.538,1.538,0,0,1,208.372,1552.152Zm-11.539,0a1.54,1.54,0,1,1,1.533-1.54A1.538,1.538,0,0,1,196.833,1552.152Zm-11.539,0a1.54,1.54,0,1,1,1.532-1.54A1.538,1.538,0,0,1,185.294,1552.152Zm-11.479,0a1.54,1.54,0,1,1,1.532-1.539A1.538,1.538,0,0,1,173.815,1552.151Zm-11.539,0a1.54,1.54,0,1,1,1.532-1.54A1.538,1.538,0,0,1,162.276,1552.151Zm-11.539,0a1.54,1.54,0,1,1,1.532-1.54A1.538,1.538,0,0,1,150.737,1552.151Zm-11.54,0a1.54,1.54,0,1,1,1.533-1.539A1.537,1.537,0,0,1,139.2,1552.151Zm-11.539,0a1.54,1.54,0,1,1,1.533-1.539A1.537,1.537,0,0,1,127.659,1552.151Zm-11.538,0a1.54,1.54,0,1,1,1.532-1.54A1.538,1.538,0,0,1,116.121,1552.151Zm-11.539,0a1.54,1.54,0,1,1,1.532-1.54A1.538,1.538,0,0,1,104.582,1552.151Zm-11.54,0a1.54,1.54,0,1,1,1.534-1.539A1.537,1.537,0,0,1,93.042,1552.151Zm-11.538,0a1.54,1.54,0,1,1,1.532-1.54A1.538,1.538,0,0,1,81.5,1552.151Zm-11.539,0a1.54,1.54,0,1,1,1.532-1.54A1.538,1.538,0,0,1,69.965,1552.151Zm-11.539,0a1.54,1.54,0,1,1,1.532-1.539A1.538,1.538,0,0,1,58.426,1552.151Zm-11.539,0a1.54,1.54,0,1,1,1.532-1.54A1.538,1.538,0,0,1,46.887,1552.151Zm-11.539,0a1.53,1.53,0,0,1-1.348-.806v-1.466a1.535,1.535,0,1,1,1.348,2.273Zm282.643-5.747a1.539,1.539,0,1,1,1.532-1.539A1.537,1.537,0,0,1,317.992,1546.4Zm-11.54,0a1.539,1.539,0,1,1,1.532-1.539A1.537,1.537,0,0,1,306.452,1546.4Zm-11.538,0a1.539,1.539,0,1,1,1.532-1.539A1.538,1.538,0,0,1,294.914,1546.4Zm-11.539,0a1.539,1.539,0,1,1,1.532-1.539A1.538,1.538,0,0,1,283.375,1546.4Zm-11.539,0a1.539,1.539,0,1,1,1.532-1.539A1.538,1.538,0,0,1,271.836,1546.4Zm-11.54,0a1.539,1.539,0,1,1,1.533-1.539A1.537,1.537,0,0,1,260.3,1546.4Zm-11.539,0a1.539,1.539,0,1,1,1.533-1.539A1.537,1.537,0,0,1,248.757,1546.4Zm-11.54,0a1.539,1.539,0,1,1,1.534-1.539A1.537,1.537,0,0,1,237.217,1546.4Zm-11.538,0a1.539,1.539,0,1,1,1.533-1.539A1.537,1.537,0,0,1,225.679,1546.4Zm-11.539,0a1.539,1.539,0,1,1,1.533-1.539A1.537,1.537,0,0,1,214.141,1546.4Zm-11.538,0a1.539,1.539,0,1,1,1.533-1.539A1.537,1.537,0,0,1,202.6,1546.4Zm-11.539,0a1.539,1.539,0,1,1,1.532-1.539A1.537,1.537,0,0,1,191.064,1546.4Zm-11.479,0a1.539,1.539,0,1,1,1.531-1.54A1.538,1.538,0,0,1,179.585,1546.4Zm-11.539,0a1.539,1.539,0,1,1,1.532-1.54A1.538,1.538,0,0,1,168.046,1546.4Zm-11.54,0a1.539,1.539,0,1,1,1.533-1.54A1.538,1.538,0,0,1,156.506,1546.4Zm-11.539,0a1.539,1.539,0,1,1,1.533-1.54A1.538,1.538,0,0,1,144.967,1546.4Zm-11.539,0a1.539,1.539,0,1,1,1.533-1.54A1.538,1.538,0,0,1,133.429,1546.4Zm-11.539,0a1.539,1.539,0,1,1,1.533-1.54A1.538,1.538,0,0,1,121.89,1546.4Zm-11.539,0a1.539,1.539,0,1,1,1.533-1.54A1.538,1.538,0,0,1,110.351,1546.4Zm-11.539,0a1.539,1.539,0,1,1,1.533-1.54A1.538,1.538,0,0,1,98.812,1546.4Zm-11.539,0a1.539,1.539,0,1,1,1.533-1.54A1.538,1.538,0,0,1,87.273,1546.4Zm-11.539,0a1.539,1.539,0,1,1,1.533-1.54A1.538,1.538,0,0,1,75.734,1546.4Zm-11.539,0a1.539,1.539,0,1,1,1.532-1.54A1.538,1.538,0,0,1,64.2,1546.4Zm-11.539,0a1.539,1.539,0,1,1,1.532-1.54A1.538,1.538,0,0,1,52.656,1546.4Zm-11.539,0a1.539,1.539,0,1,1,1.532-1.54A1.538,1.538,0,0,1,41.117,1546.4Zm282.643-5.67a1.54,1.54,0,1,1,1.533-1.54A1.538,1.538,0,0,1,323.761,1540.734Zm-11.539,0a1.54,1.54,0,1,1,1.532-1.54A1.538,1.538,0,0,1,312.222,1540.734Zm-11.539,0a1.54,1.54,0,1,1,1.532-1.54A1.539,1.539,0,0,1,300.683,1540.734Zm-11.539,0a1.54,1.54,0,1,1,1.532-1.54A1.538,1.538,0,0,1,289.144,1540.734Zm-11.539,0a1.54,1.54,0,1,1,1.532-1.54A1.538,1.538,0,0,1,277.605,1540.734Zm-11.539,0a1.54,1.54,0,1,1,1.533-1.54A1.538,1.538,0,0,1,266.066,1540.734Zm-11.539,0a1.54,1.54,0,1,1,1.533-1.54A1.538,1.538,0,0,1,254.527,1540.734Zm-11.539,0a1.54,1.54,0,1,1,1.532-1.54A1.538,1.538,0,0,1,242.988,1540.734Zm-11.539,0a1.54,1.54,0,1,1,1.533-1.54A1.538,1.538,0,0,1,231.449,1540.734Zm-11.539,0a1.54,1.54,0,1,1,1.533-1.54A1.538,1.538,0,0,1,219.91,1540.734Zm-11.539,0a1.54,1.54,0,1,1,1.533-1.54A1.538,1.538,0,0,1,208.372,1540.734Zm-11.539,0a1.54,1.54,0,1,1,1.533-1.54A1.538,1.538,0,0,1,196.833,1540.734Zm-11.539,0a1.54,1.54,0,1,1,1.532-1.54A1.538,1.538,0,0,1,185.294,1540.734Zm-11.479,0a1.54,1.54,0,1,1,1.532-1.54A1.538,1.538,0,0,1,173.815,1540.734Zm-11.539,0a1.54,1.54,0,1,1,1.532-1.54A1.538,1.538,0,0,1,162.276,1540.734Zm-11.539,0a1.54,1.54,0,1,1,1.532-1.54A1.538,1.538,0,0,1,150.737,1540.734Zm-11.54,0a1.54,1.54,0,1,1,1.533-1.54A1.538,1.538,0,0,1,139.2,1540.734Zm-11.539,0a1.54,1.54,0,1,1,1.533-1.54A1.538,1.538,0,0,1,127.659,1540.734Zm-11.538,0a1.54,1.54,0,1,1,1.532-1.54A1.538,1.538,0,0,1,116.121,1540.734Zm-11.539,0a1.54,1.54,0,1,1,1.532-1.54A1.538,1.538,0,0,1,104.582,1540.734Zm-11.54,0a1.54,1.54,0,1,1,1.534-1.54A1.538,1.538,0,0,1,93.042,1540.734Zm-11.538,0a1.54,1.54,0,1,1,1.532-1.54A1.538,1.538,0,0,1,81.5,1540.734Zm-11.539,0a1.54,1.54,0,1,1,1.532-1.54A1.538,1.538,0,0,1,69.965,1540.734Zm-11.539,0a1.54,1.54,0,1,1,1.532-1.54A1.538,1.538,0,0,1,58.426,1540.734Zm-11.539,0a1.54,1.54,0,1,1,1.532-1.54A1.538,1.538,0,0,1,46.887,1540.734Zm-11.539,0a1.531,1.531,0,0,1-1.348-.806v-1.466a1.535,1.535,0,1,1,1.348,2.273Zm282.643-5.373a1.54,1.54,0,1,1,1.532-1.54A1.538,1.538,0,0,1,317.992,1535.361Zm-11.54,0a1.54,1.54,0,1,1,1.532-1.54A1.538,1.538,0,0,1,306.452,1535.361Zm-11.538,0a1.54,1.54,0,1,1,1.532-1.54A1.538,1.538,0,0,1,294.914,1535.361Zm-11.539,0a1.54,1.54,0,1,1,1.532-1.54A1.538,1.538,0,0,1,283.375,1535.361Zm-11.539,0a1.54,1.54,0,1,1,1.532-1.54A1.539,1.539,0,0,1,271.836,1535.361Zm-11.54,0a1.54,1.54,0,1,1,1.533-1.54A1.538,1.538,0,0,1,260.3,1535.361Zm-11.539,0a1.54,1.54,0,1,1,1.533-1.54A1.538,1.538,0,0,1,248.757,1535.361Zm-11.54,0a1.54,1.54,0,1,1,1.534-1.54A1.538,1.538,0,0,1,237.217,1535.361Zm-11.538,0a1.54,1.54,0,1,1,1.533-1.54A1.538,1.538,0,0,1,225.679,1535.361Zm-11.539,0a1.54,1.54,0,1,1,1.533-1.54A1.538,1.538,0,0,1,214.141,1535.361Zm-11.538,0a1.54,1.54,0,1,1,1.532-1.54A1.538,1.538,0,0,1,202.6,1535.361Zm-11.539,0a1.54,1.54,0,1,1,1.532-1.54A1.538,1.538,0,0,1,191.064,1535.361Zm-11.539,0a1.54,1.54,0,1,1,1.532-1.54A1.538,1.538,0,0,1,179.525,1535.361Zm-11.48,0a1.54,1.54,0,1,1,1.533-1.54A1.538,1.538,0,0,1,168.045,1535.361Zm-11.539,0a1.54,1.54,0,1,1,1.533-1.54A1.538,1.538,0,0,1,156.506,1535.361Zm-11.539,0a1.54,1.54,0,1,1,1.533-1.54A1.538,1.538,0,0,1,144.967,1535.361Zm-11.539,0a1.54,1.54,0,1,1,1.533-1.54A1.538,1.538,0,0,1,133.429,1535.361Zm-11.539,0a1.54,1.54,0,1,1,1.533-1.54A1.538,1.538,0,0,1,121.89,1535.361Zm-11.539,0a1.54,1.54,0,1,1,1.533-1.54A1.538,1.538,0,0,1,110.351,1535.361Zm-11.539,0a1.54,1.54,0,1,1,1.533-1.54A1.538,1.538,0,0,1,98.812,1535.361Zm-11.539,0a1.54,1.54,0,1,1,1.533-1.54A1.538,1.538,0,0,1,87.273,1535.361Zm-11.539,0a1.54,1.54,0,1,1,1.533-1.54A1.538,1.538,0,0,1,75.734,1535.361Zm-11.539,0a1.54,1.54,0,1,1,1.532-1.54A1.538,1.538,0,0,1,64.2,1535.361Zm-11.539,0a1.54,1.54,0,1,1,1.532-1.54A1.538,1.538,0,0,1,52.656,1535.361Zm-11.539,0a1.54,1.54,0,1,1,1.532-1.54A1.538,1.538,0,0,1,41.117,1535.361Zm282.643-5.279a1.54,1.54,0,1,1,1.533-1.54A1.538,1.538,0,0,1,323.761,1530.082Zm-11.539,0a1.54,1.54,0,1,1,1.532-1.54A1.538,1.538,0,0,1,312.222,1530.082Zm-11.539,0a1.54,1.54,0,1,1,1.532-1.54A1.539,1.539,0,0,1,300.683,1530.082Zm-11.539,0a1.54,1.54,0,1,1,1.532-1.54A1.538,1.538,0,0,1,289.144,1530.082Zm-11.539,0a1.54,1.54,0,1,1,1.532-1.54A1.538,1.538,0,0,1,277.605,1530.082Zm-11.539,0a1.54,1.54,0,1,1,1.533-1.54A1.538,1.538,0,0,1,266.066,1530.082Zm-11.539,0a1.54,1.54,0,1,1,1.533-1.54A1.538,1.538,0,0,1,254.527,1530.082Zm-11.539,0a1.54,1.54,0,1,1,1.532-1.54A1.538,1.538,0,0,1,242.988,1530.082Zm-11.539,0a1.54,1.54,0,1,1,1.533-1.54A1.538,1.538,0,0,1,231.449,1530.082Zm-11.539,0a1.54,1.54,0,1,1,1.533-1.54A1.538,1.538,0,0,1,219.91,1530.082Zm-11.539,0a1.54,1.54,0,1,1,1.533-1.54A1.538,1.538,0,0,1,208.372,1530.082Zm-11.539,0a1.54,1.54,0,1,1,1.533-1.54A1.538,1.538,0,0,1,196.833,1530.082Zm-11.539,0a1.54,1.54,0,1,1,1.532-1.54A1.538,1.538,0,0,1,185.294,1530.082Zm-11.479-.462a1.54,1.54,0,1,1,1.532-1.541A1.539,1.539,0,0,1,173.815,1529.62Zm-11.539,0a1.54,1.54,0,1,1,1.532-1.541A1.539,1.539,0,0,1,162.276,1529.62Zm-11.539,0a1.54,1.54,0,1,1,1.532-1.541A1.539,1.539,0,0,1,150.737,1529.62Zm-11.54,0a1.54,1.54,0,1,1,1.533-1.541A1.538,1.538,0,0,1,139.2,1529.62Zm-11.539,0a1.54,1.54,0,1,1,1.533-1.541A1.538,1.538,0,0,1,127.659,1529.62Zm-11.539,0a1.54,1.54,0,1,1,1.533-1.541A1.538,1.538,0,0,1,116.12,1529.62Zm-11.538,0a1.54,1.54,0,1,1,1.532-1.541A1.539,1.539,0,0,1,104.582,1529.62Zm-11.54,0a1.54,1.54,0,1,1,1.534-1.541A1.538,1.538,0,0,1,93.042,1529.62Zm-11.538,0a1.54,1.54,0,1,1,1.532-1.541A1.539,1.539,0,0,1,81.5,1529.62Zm-11.539,0a1.54,1.54,0,1,1,1.532-1.541A1.539,1.539,0,0,1,69.965,1529.62Zm-11.539,0a1.54,1.54,0,1,1,1.532-1.541A1.539,1.539,0,0,1,58.426,1529.62Zm-11.539,0a1.54,1.54,0,1,1,1.532-1.541A1.539,1.539,0,0,1,46.887,1529.62Zm-11.539,0a1.533,1.533,0,0,1-1.348-.807v-1.466a1.535,1.535,0,1,1,1.348,2.273Zm282.643-5.209a1.54,1.54,0,1,1,1.532-1.54A1.538,1.538,0,0,1,317.992,1524.411Zm-11.54,0a1.54,1.54,0,1,1,1.532-1.54A1.538,1.538,0,0,1,306.452,1524.411Zm-11.538,0a1.54,1.54,0,1,1,1.532-1.54A1.538,1.538,0,0,1,294.914,1524.411Zm-11.539,0a1.54,1.54,0,1,1,1.532-1.54A1.538,1.538,0,0,1,283.375,1524.411Zm-11.539,0a1.54,1.54,0,1,1,1.532-1.54A1.539,1.539,0,0,1,271.836,1524.411Zm-11.54,0a1.54,1.54,0,1,1,1.533-1.54A1.538,1.538,0,0,1,260.3,1524.411Zm-11.539,0a1.54,1.54,0,1,1,1.533-1.54A1.538,1.538,0,0,1,248.757,1524.411Zm-11.54,0a1.54,1.54,0,1,1,1.534-1.54A1.538,1.538,0,0,1,237.217,1524.411Zm-11.538,0a1.54,1.54,0,1,1,1.533-1.54A1.538,1.538,0,0,1,225.679,1524.411Zm-11.539,0a1.54,1.54,0,1,1,1.533-1.54A1.538,1.538,0,0,1,214.141,1524.411Zm-11.538,0a1.54,1.54,0,1,1,1.532-1.54A1.538,1.538,0,0,1,202.6,1524.411Zm-11.539,0a1.54,1.54,0,1,1,1.532-1.54A1.538,1.538,0,0,1,191.064,1524.411Zm-11.539,0a1.54,1.54,0,1,1,1.532-1.54A1.538,1.538,0,0,1,179.525,1524.411Zm-11.48-.463a1.54,1.54,0,1,1,1.533-1.54A1.538,1.538,0,0,1,168.045,1523.948Zm-11.539,0a1.54,1.54,0,1,1,1.533-1.54A1.538,1.538,0,0,1,156.506,1523.948Zm-11.539,0a1.54,1.54,0,1,1,1.533-1.54A1.538,1.538,0,0,1,144.967,1523.948Zm-11.539,0a1.54,1.54,0,1,1,1.533-1.54A1.538,1.538,0,0,1,133.429,1523.948Zm-11.539,0a1.54,1.54,0,1,1,1.533-1.54A1.538,1.538,0,0,1,121.89,1523.948Zm-11.539,0a1.54,1.54,0,1,1,1.533-1.54A1.538,1.538,0,0,1,110.351,1523.948Zm-11.539,0a1.54,1.54,0,1,1,1.533-1.54A1.538,1.538,0,0,1,98.812,1523.948Zm-11.539,0a1.54,1.54,0,1,1,1.533-1.54A1.538,1.538,0,0,1,87.273,1523.948Zm-11.539,0a1.54,1.54,0,1,1,1.533-1.54A1.538,1.538,0,0,1,75.734,1523.948Zm-11.539,0a1.54,1.54,0,1,1,1.532-1.54A1.538,1.538,0,0,1,64.2,1523.948Zm-11.539,0a1.54,1.54,0,1,1,1.532-1.54A1.538,1.538,0,0,1,52.656,1523.948Zm-11.539,0a1.54,1.54,0,1,1,1.533-1.54A1.538,1.538,0,0,1,41.117,1523.948Zm259.565-5.077a1.54,1.54,0,1,1,1.533-1.54A1.538,1.538,0,0,1,300.683,1518.872Zm-34.617,0a1.54,1.54,0,1,1,1.533-1.54A1.538,1.538,0,0,1,266.066,1518.872Zm-23.078,0a1.54,1.54,0,1,1,1.532-1.54A1.538,1.538,0,0,1,242.988,1518.872Zm-11.539,0a1.54,1.54,0,1,1,1.533-1.54A1.538,1.538,0,0,1,231.449,1518.872Zm-11.539,0a1.54,1.54,0,1,1,1.533-1.54A1.538,1.538,0,0,1,219.91,1518.872Zm-11.539,0a1.54,1.54,0,1,1,1.533-1.54A1.538,1.538,0,0,1,208.372,1518.872Zm-11.539,0a1.54,1.54,0,1,1,1.533-1.54A1.538,1.538,0,0,1,196.833,1518.872Zm126.928,0a1.539,1.539,0,1,1,1.533-1.539A1.538,1.538,0,0,1,323.761,1518.871Zm-11.539,0a1.539,1.539,0,1,1,1.532-1.539A1.538,1.538,0,0,1,312.222,1518.871Zm-23.077,0a1.539,1.539,0,1,1,1.531-1.539A1.538,1.538,0,0,1,289.145,1518.871Zm-11.54,0a1.539,1.539,0,1,1,1.532-1.539A1.538,1.538,0,0,1,277.605,1518.871Zm-23.078,0a1.539,1.539,0,1,1,1.533-1.539A1.537,1.537,0,0,1,254.527,1518.871Zm-69.233,0a1.539,1.539,0,1,1,1.532-1.539A1.538,1.538,0,0,1,185.294,1518.871Zm-11.479-.463a1.539,1.539,0,1,1,1.532-1.54A1.538,1.538,0,0,1,173.815,1518.408Zm-11.539,0a1.539,1.539,0,1,1,1.532-1.54A1.538,1.538,0,0,1,162.276,1518.408Zm-11.539,0a1.54,1.54,0,1,1,1.532-1.54A1.538,1.538,0,0,1,150.737,1518.408Zm-11.539,0a1.54,1.54,0,1,1,1.532-1.54A1.538,1.538,0,0,1,139.2,1518.408Zm-11.54,0a1.539,1.539,0,1,1,1.533-1.54A1.538,1.538,0,0,1,127.659,1518.408Zm-11.538,0a1.54,1.54,0,1,1,1.532-1.54A1.538,1.538,0,0,1,116.121,1518.408Zm-11.539,0a1.54,1.54,0,1,1,1.532-1.54A1.538,1.538,0,0,1,104.582,1518.408Zm-11.54,0a1.539,1.539,0,1,1,1.534-1.54A1.538,1.538,0,0,1,93.042,1518.408Zm-11.538,0a1.539,1.539,0,1,1,1.532-1.54A1.538,1.538,0,0,1,81.5,1518.408Zm-11.539,0a1.539,1.539,0,1,1,1.532-1.54A1.538,1.538,0,0,1,69.965,1518.408Zm-11.539,0a1.539,1.539,0,1,1,1.532-1.54A1.538,1.538,0,0,1,58.426,1518.408Zm-11.539,0a1.539,1.539,0,1,1,1.532-1.54A1.538,1.538,0,0,1,46.887,1518.408Zm-11.539,0A1.532,1.532,0,0,1,34,1517.6v-1.466a1.535,1.535,0,1,1,1.348,2.273Zm282.643-5.283a1.539,1.539,0,1,1,1.532-1.54A1.538,1.538,0,0,1,317.992,1513.125Zm-11.54,0a1.539,1.539,0,1,1,1.532-1.54A1.538,1.538,0,0,1,306.452,1513.125Zm-11.538,0a1.539,1.539,0,1,1,1.532-1.54A1.538,1.538,0,0,1,294.914,1513.125Zm-11.539,0a1.539,1.539,0,1,1,1.532-1.54A1.538,1.538,0,0,1,283.375,1513.125Zm-11.539,0a1.539,1.539,0,1,1,1.532-1.54A1.539,1.539,0,0,1,271.836,1513.125Zm-11.54,0a1.539,1.539,0,1,1,1.533-1.54A1.538,1.538,0,0,1,260.3,1513.125Zm-11.539,0a1.539,1.539,0,1,1,1.533-1.54A1.538,1.538,0,0,1,248.757,1513.125Zm-11.54,0a1.539,1.539,0,1,1,1.534-1.54A1.538,1.538,0,0,1,237.217,1513.125Zm-11.538,0a1.539,1.539,0,1,1,1.533-1.54A1.538,1.538,0,0,1,225.679,1513.125Zm-11.538,0a1.539,1.539,0,1,1,1.532-1.54A1.538,1.538,0,0,1,214.141,1513.125Zm-11.539,0a1.539,1.539,0,1,1,1.533-1.54A1.538,1.538,0,0,1,202.6,1513.125Zm-11.539,0a1.539,1.539,0,1,1,1.532-1.54A1.538,1.538,0,0,1,191.064,1513.125Zm-11.479-.462a1.54,1.54,0,1,1,1.532-1.541A1.539,1.539,0,0,1,179.585,1512.663Zm-11.539,0a1.54,1.54,0,1,1,1.532-1.541A1.539,1.539,0,0,1,168.046,1512.663Zm-11.54,0a1.54,1.54,0,1,1,1.533-1.541A1.538,1.538,0,0,1,156.506,1512.663Zm-11.539,0a1.54,1.54,0,1,1,1.533-1.541A1.538,1.538,0,0,1,144.967,1512.663Zm-11.539,0a1.54,1.54,0,1,1,1.533-1.541A1.538,1.538,0,0,1,133.429,1512.663Zm-11.539,0a1.54,1.54,0,1,1,1.533-1.541A1.538,1.538,0,0,1,121.89,1512.663Zm-11.539,0a1.54,1.54,0,1,1,1.533-1.541A1.538,1.538,0,0,1,110.351,1512.663Zm-11.539,0a1.54,1.54,0,1,1,1.533-1.541A1.538,1.538,0,0,1,98.812,1512.663Zm-11.539,0a1.54,1.54,0,1,1,1.533-1.541A1.538,1.538,0,0,1,87.273,1512.663Zm-11.539,0a1.54,1.54,0,1,1,1.533-1.541A1.538,1.538,0,0,1,75.734,1512.663Zm-11.539,0a1.54,1.54,0,1,1,1.532-1.541A1.539,1.539,0,0,1,64.2,1512.663Zm-11.539,0a1.54,1.54,0,1,1,1.533-1.541A1.538,1.538,0,0,1,52.656,1512.663Zm-11.539,0a1.54,1.54,0,1,1,1.533-1.541A1.538,1.538,0,0,1,41.117,1512.663Zm282.643-5.208a1.54,1.54,0,1,1,1.533-1.541A1.539,1.539,0,0,1,323.761,1507.455Zm-11.539,0a1.54,1.54,0,1,1,1.532-1.541A1.538,1.538,0,0,1,312.222,1507.455Zm-11.539,0a1.54,1.54,0,1,1,1.533-1.541A1.538,1.538,0,0,1,300.683,1507.455Zm-11.539,0a1.54,1.54,0,1,1,1.533-1.541A1.538,1.538,0,0,1,289.144,1507.455Zm-11.539,0a1.54,1.54,0,1,1,1.532-1.541A1.539,1.539,0,0,1,277.605,1507.455Zm-11.539,0a1.54,1.54,0,1,1,1.533-1.541A1.538,1.538,0,0,1,266.066,1507.455Zm-11.539,0a1.54,1.54,0,1,1,1.533-1.541A1.538,1.538,0,0,1,254.527,1507.455Zm-11.539,0a1.54,1.54,0,1,1,1.532-1.541A1.538,1.538,0,0,1,242.988,1507.455Zm-11.539,0a1.54,1.54,0,1,1,1.533-1.541A1.538,1.538,0,0,1,231.449,1507.455Zm-11.539,0a1.54,1.54,0,1,1,1.533-1.541A1.538,1.538,0,0,1,219.91,1507.455Zm-11.539,0a1.54,1.54,0,1,1,1.533-1.541A1.538,1.538,0,0,1,208.372,1507.455Zm-11.539,0a1.54,1.54,0,1,1,1.533-1.541A1.538,1.538,0,0,1,196.833,1507.455Zm-11.539,0a1.54,1.54,0,1,1,1.532-1.541A1.539,1.539,0,0,1,185.294,1507.455Zm-11.479-.463a1.54,1.54,0,1,1,1.532-1.54A1.538,1.538,0,0,1,173.815,1506.992Zm-11.539,0a1.54,1.54,0,1,1,1.532-1.54A1.538,1.538,0,0,1,162.276,1506.992Zm-11.539,0a1.54,1.54,0,1,1,1.532-1.54A1.538,1.538,0,0,1,150.737,1506.992Zm-11.54,0a1.54,1.54,0,1,1,1.533-1.54A1.538,1.538,0,0,1,139.2,1506.992Zm-11.539,0a1.54,1.54,0,1,1,1.533-1.54A1.538,1.538,0,0,1,127.659,1506.992Zm-11.539,0a1.54,1.54,0,1,1,1.533-1.54A1.538,1.538,0,0,1,116.12,1506.992Zm-11.538,0a1.54,1.54,0,1,1,1.532-1.54A1.538,1.538,0,0,1,104.582,1506.992Zm-11.54,0a1.54,1.54,0,1,1,1.534-1.54A1.538,1.538,0,0,1,93.042,1506.992Zm-11.538,0a1.54,1.54,0,1,1,1.532-1.54A1.538,1.538,0,0,1,81.5,1506.992Zm-11.539,0a1.54,1.54,0,1,1,1.532-1.54A1.538,1.538,0,0,1,69.965,1506.992Zm-11.539,0a1.54,1.54,0,1,1,1.532-1.54A1.538,1.538,0,0,1,58.426,1506.992Zm-11.539,0a1.54,1.54,0,1,1,1.532-1.54A1.538,1.538,0,0,1,46.887,1506.992Zm-11.539,0a1.533,1.533,0,0,1-1.348-.806v-1.466a1.535,1.535,0,1,1,1.348,2.273Zm282.643-5.138a1.539,1.539,0,1,1,1.532-1.54A1.538,1.538,0,0,1,317.992,1501.853Zm-11.54,0a1.539,1.539,0,1,1,1.532-1.54A1.538,1.538,0,0,1,306.452,1501.853Zm-11.538,0a1.539,1.539,0,1,1,1.532-1.54A1.538,1.538,0,0,1,294.914,1501.853Zm-11.539,0a1.539,1.539,0,1,1,1.532-1.54A1.538,1.538,0,0,1,283.375,1501.853Zm-11.539,0a1.539,1.539,0,1,1,1.532-1.54A1.539,1.539,0,0,1,271.836,1501.853Zm-11.54,0a1.539,1.539,0,1,1,1.533-1.54A1.538,1.538,0,0,1,260.3,1501.853Zm-11.539,0a1.539,1.539,0,1,1,1.533-1.54A1.538,1.538,0,0,1,248.757,1501.853Zm-11.54,0a1.539,1.539,0,1,1,1.534-1.54A1.538,1.538,0,0,1,237.217,1501.853Zm-11.538,0a1.539,1.539,0,1,1,1.533-1.54A1.538,1.538,0,0,1,225.679,1501.853Zm-11.538,0a1.539,1.539,0,1,1,1.532-1.54A1.538,1.538,0,0,1,214.141,1501.853Zm-11.539,0a1.539,1.539,0,1,1,1.532-1.54A1.538,1.538,0,0,1,202.6,1501.853Zm-11.539,0a1.539,1.539,0,1,1,1.532-1.54A1.538,1.538,0,0,1,191.064,1501.853Zm-11.539,0a1.539,1.539,0,1,1,1.532-1.54A1.538,1.538,0,0,1,179.525,1501.853Zm-11.479-.463a1.54,1.54,0,1,1,1.532-1.54A1.538,1.538,0,0,1,168.046,1501.39Zm-11.54,0a1.54,1.54,0,1,1,1.533-1.54A1.538,1.538,0,0,1,156.506,1501.39Zm-11.539,0a1.54,1.54,0,1,1,1.533-1.54A1.538,1.538,0,0,1,144.967,1501.39Zm-11.539,0a1.54,1.54,0,1,1,1.533-1.54A1.538,1.538,0,0,1,133.429,1501.39Zm-11.539,0a1.54,1.54,0,1,1,1.533-1.54A1.538,1.538,0,0,1,121.89,1501.39Zm-11.539,0a1.54,1.54,0,1,1,1.533-1.54A1.538,1.538,0,0,1,110.351,1501.39Zm-11.539,0a1.54,1.54,0,1,1,1.533-1.54A1.538,1.538,0,0,1,98.812,1501.39Zm-11.539,0a1.54,1.54,0,1,1,1.533-1.54A1.538,1.538,0,0,1,87.273,1501.39Zm-11.539,0a1.54,1.54,0,1,1,1.533-1.54A1.538,1.538,0,0,1,75.734,1501.39Zm-11.539,0a1.54,1.54,0,1,1,1.532-1.54A1.538,1.538,0,0,1,64.2,1501.39Zm-11.539,0a1.54,1.54,0,1,1,1.532-1.54A1.538,1.538,0,0,1,52.656,1501.39Zm-11.539,0a1.54,1.54,0,1,1,1.532-1.54A1.538,1.538,0,0,1,41.117,1501.39Zm282.643-5.282a1.54,1.54,0,1,1,1.533-1.54A1.538,1.538,0,0,1,323.761,1496.108Zm-11.539,0a1.54,1.54,0,1,1,1.532-1.54A1.538,1.538,0,0,1,312.222,1496.108Zm-11.539,0a1.54,1.54,0,1,1,1.532-1.54A1.539,1.539,0,0,1,300.683,1496.108Zm-11.538,0a1.54,1.54,0,1,1,1.531-1.54A1.538,1.538,0,0,1,289.145,1496.108Zm-11.54,0a1.54,1.54,0,1,1,1.532-1.54A1.538,1.538,0,0,1,277.605,1496.108Zm-11.539,0a1.54,1.54,0,1,1,1.533-1.54A1.538,1.538,0,0,1,266.066,1496.108Zm-11.539,0a1.54,1.54,0,1,1,1.533-1.54A1.538,1.538,0,0,1,254.527,1496.108Zm-11.539,0a1.54,1.54,0,1,1,1.532-1.54A1.538,1.538,0,0,1,242.988,1496.108Zm-11.539,0a1.54,1.54,0,1,1,1.533-1.54A1.538,1.538,0,0,1,231.449,1496.108Zm-11.539,0a1.54,1.54,0,1,1,1.533-1.54A1.538,1.538,0,0,1,219.91,1496.108Zm-11.539,0a1.54,1.54,0,1,1,1.533-1.54A1.538,1.538,0,0,1,208.372,1496.108Zm-11.539,0a1.54,1.54,0,1,1,1.533-1.54A1.538,1.538,0,0,1,196.833,1496.108Zm-11.539,0a1.54,1.54,0,1,1,1.532-1.54A1.538,1.538,0,0,1,185.294,1496.108Zm-11.479-.464a1.54,1.54,0,1,1,1.532-1.54A1.538,1.538,0,0,1,173.815,1495.644Zm-11.539,0a1.54,1.54,0,1,1,1.532-1.54A1.538,1.538,0,0,1,162.276,1495.644Zm-11.539,0a1.54,1.54,0,1,1,1.532-1.54A1.538,1.538,0,0,1,150.737,1495.644Zm-11.54,0a1.54,1.54,0,1,1,1.533-1.54A1.537,1.537,0,0,1,139.2,1495.644Zm-11.539,0a1.54,1.54,0,1,1,1.533-1.54A1.537,1.537,0,0,1,127.659,1495.644Zm-11.539,0a1.54,1.54,0,1,1,1.533-1.54A1.537,1.537,0,0,1,116.12,1495.644Zm-11.538,0a1.54,1.54,0,1,1,1.532-1.54A1.538,1.538,0,0,1,104.582,1495.644Zm-11.54,0a1.54,1.54,0,1,1,1.534-1.54A1.538,1.538,0,0,1,93.042,1495.644Zm-11.538,0a1.54,1.54,0,1,1,1.532-1.54A1.538,1.538,0,0,1,81.5,1495.644Zm-11.539,0a1.54,1.54,0,1,1,1.532-1.54A1.538,1.538,0,0,1,69.965,1495.644Zm-11.539,0a1.54,1.54,0,1,1,1.532-1.54A1.538,1.538,0,0,1,58.426,1495.644Zm-11.539,0a1.54,1.54,0,1,1,1.532-1.54A1.538,1.538,0,0,1,46.887,1495.644Zm-11.539,0a1.532,1.532,0,0,1-1.348-.806v-1.466a1.534,1.534,0,1,1,1.348,2.272ZM34,1482h0V1470.18l34.626-68.68h5.962Z" transform="translate(-33.5 -1401)" stroke="rgba(0,0,0,0)" stroke-miterlimit="10" stroke-width="1" opacity="0.3" fill="url(#linear-gradient)"/>
</svg>
