<svg xmlns="http://www.w3.org/2000/svg" xmlns:xlink="http://www.w3.org/1999/xlink" width="964" height="282" viewBox="0 0 964 282">
  <defs>
    <clipPath id="clip-path">
      <rect id="Rectangle_5041" data-name="Rectangle 5041" width="964" height="282" transform="translate(-2824 -66)" fill="#fff" stroke="#707070" stroke-width="1"/>
    </clipPath>
    <clipPath id="clip-path-2">
      <rect width="1081.326" height="292.301" fill="none"/>
    </clipPath>
    <radialGradient id="radial-gradient" cx="0.5" cy="0.5" r="0.5" gradientUnits="objectBoundingBox">
      <stop offset="0" stop-color="#f2bf6b"/>
      <stop offset="1" stop-color="#754900"/>
    </radialGradient>
  </defs>
  <g id="Mask_Group_13" data-name="Mask Group 13" transform="translate(2824 66)" clip-path="url(#clip-path)">
    <g id="Group_14427" data-name="Group 14427" transform="translate(-4197.644 -756)">
      <g id="Repeat_Grid_5" data-name="Repeat Grid 5" transform="translate(1373.644 690)" clip-path="url(#clip-path-2)">
        <g transform="translate(-1373.818 -690.198)">
          <path id="Subtraction_4" data-name="Subtraction 4" d="M590.326,291.3H0V0H8.724V1.535l67.7,133.637L144.893,0h8.781l68.588,135.4L290.852,0H297.1V139.21h9.346V0h5.089V139.21h9.346V0h5.09V139.21h9.345V0h5.09V139.21h9.346V0h5.089V139.21h9.571V0h5.09V139.21h9.345V0h5.088V139.21h9.346V0h5.089V139.21h9.346V0H412.8V139.21h9.346V0h5.089V139.21h10.073V0H442.4V138.774c36.778-2.594,65.588-33.153,65.588-69.572,0-35.076-26.573-64.827-61.812-69.2h20.021a75.732,75.732,0,0,1,30.561,22.8A73.95,73.95,0,0,1,512.7,61.737,73.943,73.943,0,0,1,528.67,22.788,75.724,75.724,0,0,1,559.264,0h20.214a71,71,0,0,0-43.45,22.1,68.933,68.933,0,0,0,0,94.237A70.833,70.833,0,0,0,581.6,138.659V0h8.724V291.3ZM581.6,156.287,517.628,282.575H581.6Zm-138.907-3.13h0V282.575h65.558L442.694,153.156ZM437.6,229.162a72.413,72.413,0,0,1-46.8,53.413h46.8V229.162ZM297.1,233.41h0v49.165h45.782A72.368,72.368,0,0,1,297.1,233.41ZM260.887,144.3V282.575h31.12V144.3Zm-36.209,0V282.575H255.8V144.3ZM79.08,217.493v65.082H219.589V217.493ZM64.645,144.3V282.575H73.99V144.3Zm-14.434,0V282.575h9.347V144.3Zm-14.434,0V282.575h9.346V144.3Zm-14.434,0V282.575h9.346V144.3Zm-12.617,0V282.575h7.528V144.3Zm358.114,2.837a67.211,67.211,0,1,0,67.2,67.21A67.281,67.281,0,0,0,366.838,147.136Zm77.073-2.837,69.029,136.269L581.6,145.025V144.3H443.912ZM79.08,205.3h0V212.4H219.589V144.3h-.983a1.466,1.466,0,1,1-1.812,0h-9.229a1.466,1.466,0,1,1-1.812,0h-9.229a1.466,1.466,0,1,1-1.813,0h-9.229a1.466,1.466,0,1,1-1.812,0h-9.229a1.466,1.466,0,1,1-1.812,0H163.4a1.466,1.466,0,1,1-1.812,0h-9.23a1.466,1.466,0,1,1-1.812,0h-9.229a1.466,1.466,0,1,1-1.813,0h-9.229a1.466,1.466,0,1,1-1.812,0h-9.229a1.466,1.466,0,1,1-1.812,0h-9.228a1.466,1.466,0,1,1-1.814,0H97.153a1.466,1.466,0,1,1-1.814,0H86.111a1.466,1.466,0,1,1-1.812,0H79.08v4.526a1.467,1.467,0,1,1,0,2.675v7.843a1.466,1.466,0,1,1,0,2.673v8.249a1.467,1.467,0,1,1,0,2.674v8.2a1.451,1.451,0,0,1,.6-.13,1.466,1.466,0,0,1,0,2.933,1.443,1.443,0,0,1-.6-.13v8.062a1.466,1.466,0,1,1,.6,2.8,1.441,1.441,0,0,1-.6-.131v8.076a1.447,1.447,0,0,1,.6-.13,1.466,1.466,0,1,1-.6,2.8Zm305.734-61h0a72.394,72.394,0,0,1,52.789,55.23V144.3H384.815Zm-87.719,0v50.984A72.422,72.422,0,0,1,348.863,144.3ZM512.7,76.684h0a73.989,73.989,0,0,1-15.485,38.34,75.809,75.809,0,0,1-33.079,24.187h97.115a75.805,75.805,0,0,1-33.074-24.187A73.973,73.973,0,0,1,512.7,76.684ZM292.007,8.982,226.038,139.21h65.969ZM149.283,2.594h0L80.079,139.21H218.487L149.283,2.594ZM8.724,12.8h0V139.21H72.76L8.724,12.8ZM217.7,210.826a1.467,1.467,0,1,1,1.467-1.467A1.468,1.468,0,0,1,217.7,210.826Zm-11.042,0a1.467,1.467,0,1,1,1.466-1.467A1.468,1.468,0,0,1,206.659,210.826Zm-11.041,0a1.467,1.467,0,1,1,1.466-1.467A1.468,1.468,0,0,1,195.618,210.826Zm-11.041,0a1.467,1.467,0,1,1,1.466-1.467A1.468,1.468,0,0,1,184.577,210.826Zm-11.041,0A1.467,1.467,0,1,1,175,209.359,1.468,1.468,0,0,1,173.536,210.826Zm-11.042,0a1.467,1.467,0,1,1,1.466-1.467A1.468,1.468,0,0,1,162.494,210.826Zm-11.041,0a1.467,1.467,0,1,1,1.466-1.467A1.468,1.468,0,0,1,151.453,210.826Zm-11.041,0a1.467,1.467,0,1,1,1.466-1.467A1.468,1.468,0,0,1,140.411,210.826Zm-11.042,0a1.467,1.467,0,1,1,1.466-1.467A1.468,1.468,0,0,1,129.37,210.826Zm-11.041,0a1.467,1.467,0,1,1,1.466-1.467A1.468,1.468,0,0,1,118.329,210.826Zm-11.041,0a1.467,1.467,0,1,1,1.466-1.467A1.468,1.468,0,0,1,107.287,210.826Zm-11.041,0a1.467,1.467,0,1,1,1.465-1.467A1.468,1.468,0,0,1,96.246,210.826Zm-11.042,0a1.467,1.467,0,1,1,1.467-1.467A1.468,1.468,0,0,1,85.2,210.826Zm126.975-5.4a1.466,1.466,0,1,1,1.466-1.465A1.467,1.467,0,0,1,212.18,205.425Zm-11.043,0a1.466,1.466,0,1,1,1.467-1.465A1.466,1.466,0,0,1,201.137,205.425Zm-11.04,0a1.466,1.466,0,1,1,1.466-1.465A1.467,1.467,0,0,1,190.1,205.425Zm-11.041,0a1.466,1.466,0,1,1,1.466-1.465A1.467,1.467,0,0,1,179.056,205.425Zm-11.041,0a1.466,1.466,0,1,1,1.465-1.465A1.467,1.467,0,0,1,168.015,205.425Zm-11.043,0a1.466,1.466,0,1,1,1.466-1.465A1.467,1.467,0,0,1,156.972,205.425Zm-11.039,0a1.466,1.466,0,1,1,1.467-1.465A1.467,1.467,0,0,1,145.932,205.425Zm-11.042,0a1.466,1.466,0,1,1,1.466-1.465A1.467,1.467,0,0,1,134.891,205.425Zm-11.041,0a1.466,1.466,0,1,1,1.466-1.465A1.467,1.467,0,0,1,123.85,205.425Zm-11.041,0a1.466,1.466,0,1,1,1.466-1.465A1.467,1.467,0,0,1,112.808,205.425Zm-11.041,0a1.466,1.466,0,1,1,1.465-1.465A1.467,1.467,0,0,1,101.767,205.425Zm-11.042,0a1.466,1.466,0,1,1,1.466-1.465A1.467,1.467,0,0,1,90.725,205.425ZM217.7,200.15a1.466,1.466,0,1,1,1.467-1.466A1.468,1.468,0,0,1,217.7,200.15Zm-11.042,0a1.466,1.466,0,1,1,1.466-1.466A1.468,1.468,0,0,1,206.659,200.15Zm-11.041,0a1.466,1.466,0,1,1,1.466-1.466A1.468,1.468,0,0,1,195.618,200.15Zm-11.041,0a1.466,1.466,0,1,1,1.466-1.466A1.468,1.468,0,0,1,184.577,200.15Zm-11.041,0A1.466,1.466,0,1,1,175,198.683,1.468,1.468,0,0,1,173.536,200.15Zm-11.042,0a1.466,1.466,0,1,1,1.466-1.466A1.468,1.468,0,0,1,162.494,200.15Zm-11.041,0a1.466,1.466,0,1,1,1.466-1.466A1.468,1.468,0,0,1,151.453,200.15Zm-11.041,0a1.466,1.466,0,1,1,1.466-1.466A1.468,1.468,0,0,1,140.411,200.15Zm-11.042,0a1.466,1.466,0,1,1,1.466-1.466A1.468,1.468,0,0,1,129.37,200.15Zm-11.041,0a1.466,1.466,0,1,1,1.466-1.466A1.468,1.468,0,0,1,118.329,200.15Zm-11.041,0a1.466,1.466,0,1,1,1.466-1.466A1.468,1.468,0,0,1,107.287,200.15Zm-11.041,0a1.466,1.466,0,1,1,1.465-1.466A1.468,1.468,0,0,1,96.246,200.15Zm-11.041,0a1.466,1.466,0,1,1,1.466-1.466A1.468,1.468,0,0,1,85.205,200.15Zm126.974-5.472a1.466,1.466,0,1,1,1.466-1.467A1.468,1.468,0,0,1,212.18,194.678Zm-11.043,0a1.466,1.466,0,1,1,1.467-1.467A1.467,1.467,0,0,1,201.137,194.678Zm-11.04,0a1.466,1.466,0,1,1,1.466-1.467A1.468,1.468,0,0,1,190.1,194.678Zm-11.041,0a1.466,1.466,0,1,1,1.466-1.467A1.468,1.468,0,0,1,179.056,194.678Zm-11.041,0a1.466,1.466,0,1,1,1.465-1.467A1.468,1.468,0,0,1,168.015,194.678Zm-11.041,0a1.466,1.466,0,1,1,1.466-1.467A1.468,1.468,0,0,1,156.973,194.678Zm-11.041,0a1.466,1.466,0,1,1,1.467-1.467A1.468,1.468,0,0,1,145.932,194.678Zm-11.042,0a1.466,1.466,0,1,1,1.466-1.467A1.468,1.468,0,0,1,134.891,194.678Zm-11.041,0a1.466,1.466,0,1,1,1.466-1.467A1.468,1.468,0,0,1,123.85,194.678Zm-11.041,0a1.466,1.466,0,1,1,1.466-1.467A1.468,1.468,0,0,1,112.808,194.678Zm-11.041,0a1.466,1.466,0,1,1,1.465-1.467A1.468,1.468,0,0,1,101.767,194.678Zm-11.042,0a1.466,1.466,0,1,1,1.466-1.467A1.468,1.468,0,0,1,90.725,194.678Zm126.975-5.4a1.467,1.467,0,1,1,1.467-1.467A1.468,1.468,0,0,1,217.7,189.278Zm-11.042,0a1.467,1.467,0,1,1,1.466-1.467A1.468,1.468,0,0,1,206.659,189.278Zm-11.041,0a1.467,1.467,0,1,1,1.466-1.467A1.468,1.468,0,0,1,195.618,189.278Zm-11.041,0a1.467,1.467,0,1,1,1.466-1.467A1.468,1.468,0,0,1,184.577,189.278Zm-11.041,0A1.467,1.467,0,1,1,175,187.811,1.468,1.468,0,0,1,173.536,189.278Zm-11.042,0a1.467,1.467,0,1,1,1.466-1.467A1.468,1.468,0,0,1,162.494,189.278Zm-11.041,0a1.467,1.467,0,1,1,1.466-1.467A1.468,1.468,0,0,1,151.453,189.278Zm-11.041,0a1.467,1.467,0,1,1,1.466-1.467A1.468,1.468,0,0,1,140.411,189.278Zm-11.042,0a1.467,1.467,0,1,1,1.466-1.467A1.468,1.468,0,0,1,129.37,189.278Zm-11.041,0a1.467,1.467,0,1,1,1.466-1.467A1.468,1.468,0,0,1,118.329,189.278Zm-11.041,0a1.467,1.467,0,1,1,1.466-1.467A1.468,1.468,0,0,1,107.287,189.278Zm-11.041,0a1.467,1.467,0,1,1,1.465-1.467A1.468,1.468,0,0,1,96.246,189.278Zm-11.041,0a1.467,1.467,0,1,1,1.466-1.467A1.468,1.468,0,0,1,85.205,189.278Zm126.974-5.334a1.466,1.466,0,1,1,1.466-1.466A1.468,1.468,0,0,1,212.18,183.943Zm-11.043,0a1.466,1.466,0,1,1,1.467-1.466A1.467,1.467,0,0,1,201.137,183.943Zm-11.04,0a1.466,1.466,0,1,1,1.466-1.466A1.468,1.468,0,0,1,190.1,183.943Zm-11.041,0a1.466,1.466,0,1,1,1.466-1.466A1.468,1.468,0,0,1,179.056,183.943Zm-11.041,0a1.466,1.466,0,1,1,1.465-1.466A1.468,1.468,0,0,1,168.015,183.943Zm-11.041,0a1.466,1.466,0,1,1,1.465-1.466A1.468,1.468,0,0,1,156.973,183.943Zm-11.041,0a1.466,1.466,0,1,1,1.467-1.466A1.468,1.468,0,0,1,145.932,183.943Zm-11.042,0a1.466,1.466,0,1,1,1.466-1.466A1.467,1.467,0,0,1,134.891,183.943Zm-11.041,0a1.466,1.466,0,1,1,1.466-1.466A1.468,1.468,0,0,1,123.85,183.943Zm-11.041,0a1.466,1.466,0,1,1,1.466-1.466A1.468,1.468,0,0,1,112.808,183.943Zm-11.041,0a1.466,1.466,0,1,1,1.465-1.466A1.468,1.468,0,0,1,101.767,183.943Zm-11.042,0a1.466,1.466,0,1,1,1.466-1.466A1.468,1.468,0,0,1,90.725,183.943ZM217.7,178.47a1.466,1.466,0,1,1,1.467-1.465A1.467,1.467,0,0,1,217.7,178.47Zm-11.042,0a1.466,1.466,0,1,1,1.466-1.465A1.467,1.467,0,0,1,206.659,178.47Zm-11.041,0a1.466,1.466,0,1,1,1.466-1.465A1.467,1.467,0,0,1,195.618,178.47Zm-11.041,0a1.466,1.466,0,1,1,1.466-1.465A1.467,1.467,0,0,1,184.577,178.47Zm-11.041,0A1.466,1.466,0,1,1,175,177.005,1.468,1.468,0,0,1,173.536,178.47Zm-11.042,0a1.466,1.466,0,1,1,1.466-1.465A1.467,1.467,0,0,1,162.494,178.47Zm-11.041,0a1.466,1.466,0,1,1,1.466-1.465A1.467,1.467,0,0,1,151.453,178.47Zm-11.041,0a1.466,1.466,0,1,1,1.466-1.465A1.467,1.467,0,0,1,140.411,178.47Zm-11.042,0a1.466,1.466,0,1,1,1.466-1.465A1.467,1.467,0,0,1,129.37,178.47Zm-11.041,0a1.466,1.466,0,1,1,1.466-1.465A1.467,1.467,0,0,1,118.329,178.47Zm-11.041,0a1.466,1.466,0,1,1,1.466-1.465A1.467,1.467,0,0,1,107.287,178.47Zm-11.041,0a1.466,1.466,0,1,1,1.465-1.465A1.467,1.467,0,0,1,96.246,178.47Zm-11.041,0a1.466,1.466,0,1,1,1.466-1.465A1.467,1.467,0,0,1,85.205,178.47Zm126.974-5.4a1.466,1.466,0,1,1,1.466-1.466A1.468,1.468,0,0,1,212.18,173.071Zm-11.043,0A1.466,1.466,0,1,1,202.6,171.6,1.467,1.467,0,0,1,201.137,173.071Zm-11.04,0a1.466,1.466,0,1,1,1.466-1.466A1.468,1.468,0,0,1,190.1,173.071Zm-11.041,0a1.466,1.466,0,1,1,1.466-1.466A1.468,1.468,0,0,1,179.056,173.071Zm-11.041,0a1.466,1.466,0,1,1,1.465-1.466A1.468,1.468,0,0,1,168.015,173.071Zm-11.041,0a1.466,1.466,0,1,1,1.465-1.466A1.468,1.468,0,0,1,156.973,173.071Zm-11.041,0A1.466,1.466,0,1,1,147.4,171.6,1.468,1.468,0,0,1,145.932,173.071Zm-11.042,0a1.466,1.466,0,1,1,1.466-1.466A1.467,1.467,0,0,1,134.891,173.071Zm-11.041,0a1.466,1.466,0,1,1,1.466-1.466A1.468,1.468,0,0,1,123.85,173.071Zm-11.041,0a1.466,1.466,0,1,1,1.466-1.466A1.468,1.468,0,0,1,112.808,173.071Zm-11.041,0a1.466,1.466,0,1,1,1.465-1.466A1.468,1.468,0,0,1,101.767,173.071Zm-11.042,0a1.466,1.466,0,1,1,1.466-1.466A1.468,1.468,0,0,1,90.725,173.071ZM217.7,167.62a1.467,1.467,0,1,1,1.467-1.467A1.468,1.468,0,0,1,217.7,167.62Zm-11.042,0a1.467,1.467,0,1,1,1.466-1.467A1.468,1.468,0,0,1,206.659,167.62Zm-11.041,0a1.467,1.467,0,1,1,1.466-1.467A1.468,1.468,0,0,1,195.618,167.62Zm-11.041,0a1.467,1.467,0,1,1,1.466-1.467A1.468,1.468,0,0,1,184.577,167.62Zm-11.041,0A1.467,1.467,0,1,1,175,166.153,1.468,1.468,0,0,1,173.536,167.62Zm-11.042,0a1.467,1.467,0,1,1,1.466-1.467A1.468,1.468,0,0,1,162.494,167.62Zm-11.041,0a1.467,1.467,0,1,1,1.466-1.467A1.468,1.468,0,0,1,151.453,167.62Zm-11.041,0a1.467,1.467,0,1,1,1.466-1.467A1.468,1.468,0,0,1,140.411,167.62Zm-11.042,0a1.467,1.467,0,1,1,1.466-1.467A1.468,1.468,0,0,1,129.37,167.62Zm-11.041,0a1.467,1.467,0,1,1,1.466-1.467A1.468,1.468,0,0,1,118.329,167.62Zm-11.041,0a1.467,1.467,0,1,1,1.466-1.467A1.468,1.468,0,0,1,107.287,167.62Zm-11.041,0a1.467,1.467,0,1,1,1.465-1.467A1.468,1.468,0,0,1,96.246,167.62Zm-11.041,0a1.467,1.467,0,1,1,1.466-1.467A1.468,1.468,0,0,1,85.205,167.62Zm126.974-5.473a1.466,1.466,0,1,1,1.466-1.466A1.468,1.468,0,0,1,212.18,162.147Zm-11.041,0a1.466,1.466,0,1,1,1.466-1.467A1.468,1.468,0,0,1,201.139,162.147Zm-11.042,0a1.466,1.466,0,1,1,1.466-1.467A1.468,1.468,0,0,1,190.1,162.147Zm-11.041,0a1.466,1.466,0,1,1,1.466-1.466A1.467,1.467,0,0,1,179.056,162.147Zm-11.041,0a1.466,1.466,0,1,1,1.466-1.467A1.468,1.468,0,0,1,168.015,162.147Zm-11.041,0a1.466,1.466,0,1,1,1.466-1.467A1.468,1.468,0,0,1,156.973,162.147Zm-11.041,0a1.466,1.466,0,1,1,1.467-1.466A1.468,1.468,0,0,1,145.932,162.147Zm-11.042,0a1.466,1.466,0,1,1,1.466-1.466A1.467,1.467,0,0,1,134.891,162.147Zm-11.041,0a1.466,1.466,0,1,1,1.466-1.466A1.468,1.468,0,0,1,123.85,162.147Zm-11.041,0a1.466,1.466,0,1,1,1.466-1.467A1.468,1.468,0,0,1,112.808,162.147Zm-11.041,0a1.466,1.466,0,1,1,1.465-1.466A1.468,1.468,0,0,1,101.767,162.147Zm-11.042,0a1.466,1.466,0,1,1,1.466-1.467A1.468,1.468,0,0,1,90.725,162.147Zm126.975-5.4a1.467,1.467,0,1,1,1.467-1.467A1.468,1.468,0,0,1,217.7,156.747Zm-11.042,0a1.467,1.467,0,1,1,1.466-1.467A1.468,1.468,0,0,1,206.659,156.747Zm-11.041,0a1.467,1.467,0,1,1,1.466-1.467A1.468,1.468,0,0,1,195.618,156.747Zm-11.041,0a1.467,1.467,0,1,1,1.466-1.467A1.468,1.468,0,0,1,184.577,156.747Zm-11.041,0A1.467,1.467,0,1,1,175,155.28,1.468,1.468,0,0,1,173.536,156.747Zm-11.042,0a1.467,1.467,0,1,1,1.466-1.467A1.468,1.468,0,0,1,162.494,156.747Zm-11.041,0a1.467,1.467,0,1,1,1.466-1.467A1.468,1.468,0,0,1,151.453,156.747Zm-11.041,0a1.467,1.467,0,1,1,1.466-1.467A1.468,1.468,0,0,1,140.411,156.747Zm-11.042,0a1.467,1.467,0,1,1,1.466-1.467A1.468,1.468,0,0,1,129.37,156.747Zm-11.041,0a1.467,1.467,0,1,1,1.466-1.467A1.468,1.468,0,0,1,118.329,156.747Zm-11.041,0a1.467,1.467,0,1,1,1.466-1.467A1.468,1.468,0,0,1,107.287,156.747Zm-11.041,0a1.467,1.467,0,1,1,1.465-1.467A1.468,1.468,0,0,1,96.246,156.747Zm-11.041,0a1.467,1.467,0,1,1,1.466-1.467A1.468,1.468,0,0,1,85.205,156.747Zm126.974-5.116a1.467,1.467,0,1,1,1.466-1.467A1.469,1.469,0,0,1,212.18,151.631Zm-11.043,0a1.467,1.467,0,1,1,1.467-1.467A1.468,1.468,0,0,1,201.137,151.631Zm-11.04,0a1.467,1.467,0,1,1,1.466-1.467A1.468,1.468,0,0,1,190.1,151.631Zm-11.041,0a1.467,1.467,0,1,1,1.466-1.467A1.469,1.469,0,0,1,179.056,151.631Zm-11.041,0a1.467,1.467,0,1,1,1.465-1.467A1.469,1.469,0,0,1,168.015,151.631Zm-11.041,0a1.467,1.467,0,1,1,1.466-1.467A1.469,1.469,0,0,1,156.973,151.631Zm-11.041,0a1.467,1.467,0,1,1,1.467-1.467A1.469,1.469,0,0,1,145.932,151.631Zm-11.042,0a1.467,1.467,0,1,1,1.466-1.467A1.468,1.468,0,0,1,134.891,151.631Zm-11.041,0a1.467,1.467,0,1,1,1.466-1.467A1.469,1.469,0,0,1,123.85,151.631Zm-11.041,0a1.467,1.467,0,1,1,1.466-1.467A1.469,1.469,0,0,1,112.808,151.631Zm-11.042,0a1.467,1.467,0,1,1,1.466-1.467A1.468,1.468,0,0,1,101.767,151.631Zm-11.041,0a1.467,1.467,0,1,1,1.466-1.467A1.469,1.469,0,0,1,90.725,151.631Z" transform="translate(1374.318 690.698)" stroke="rgba(0,0,0,0)" stroke-miterlimit="10" stroke-width="1" opacity="0.19" fill="url(#radial-gradient)"/>
        </g>
        <g transform="translate(-790.818 -690.198)">
          <path id="Subtraction_4-2" data-name="Subtraction 4" d="M590.326,291.3H0V0H8.724V1.535l67.7,133.637L144.893,0h8.781l68.588,135.4L290.852,0H297.1V139.21h9.346V0h5.089V139.21h9.346V0h5.09V139.21h9.345V0h5.09V139.21h9.346V0h5.089V139.21h9.571V0h5.09V139.21h9.345V0h5.088V139.21h9.346V0h5.089V139.21h9.346V0H412.8V139.21h9.346V0h5.089V139.21h10.073V0H442.4V138.774c36.778-2.594,65.588-33.153,65.588-69.572,0-35.076-26.573-64.827-61.812-69.2h20.021a75.732,75.732,0,0,1,30.561,22.8A73.95,73.95,0,0,1,512.7,61.737,73.943,73.943,0,0,1,528.67,22.788,75.724,75.724,0,0,1,559.264,0h20.214a71,71,0,0,0-43.45,22.1,68.933,68.933,0,0,0,0,94.237A70.833,70.833,0,0,0,581.6,138.659V0h8.724V291.3ZM581.6,156.287,517.628,282.575H581.6Zm-138.907-3.13h0V282.575h65.558L442.694,153.156ZM437.6,229.162a72.413,72.413,0,0,1-46.8,53.413h46.8V229.162ZM297.1,233.41h0v49.165h45.782A72.368,72.368,0,0,1,297.1,233.41ZM260.887,144.3V282.575h31.12V144.3Zm-36.209,0V282.575H255.8V144.3ZM79.08,217.493v65.082H219.589V217.493ZM64.645,144.3V282.575H73.99V144.3Zm-14.434,0V282.575h9.347V144.3Zm-14.434,0V282.575h9.346V144.3Zm-14.434,0V282.575h9.346V144.3Zm-12.617,0V282.575h7.528V144.3Zm358.114,2.837a67.211,67.211,0,1,0,67.2,67.21A67.281,67.281,0,0,0,366.838,147.136Zm77.073-2.837,69.029,136.269L581.6,145.025V144.3H443.912ZM79.08,205.3h0V212.4H219.589V144.3h-.983a1.466,1.466,0,1,1-1.812,0h-9.229a1.466,1.466,0,1,1-1.812,0h-9.229a1.466,1.466,0,1,1-1.813,0h-9.229a1.466,1.466,0,1,1-1.812,0h-9.229a1.466,1.466,0,1,1-1.812,0H163.4a1.466,1.466,0,1,1-1.812,0h-9.23a1.466,1.466,0,1,1-1.812,0h-9.229a1.466,1.466,0,1,1-1.813,0h-9.229a1.466,1.466,0,1,1-1.812,0h-9.229a1.466,1.466,0,1,1-1.812,0h-9.228a1.466,1.466,0,1,1-1.814,0H97.153a1.466,1.466,0,1,1-1.814,0H86.111a1.466,1.466,0,1,1-1.812,0H79.08v4.526a1.467,1.467,0,1,1,0,2.675v7.843a1.466,1.466,0,1,1,0,2.673v8.249a1.467,1.467,0,1,1,0,2.674v8.2a1.451,1.451,0,0,1,.6-.13,1.466,1.466,0,0,1,0,2.933,1.443,1.443,0,0,1-.6-.13v8.062a1.466,1.466,0,1,1,.6,2.8,1.441,1.441,0,0,1-.6-.131v8.076a1.447,1.447,0,0,1,.6-.13,1.466,1.466,0,1,1-.6,2.8Zm305.734-61h0a72.394,72.394,0,0,1,52.789,55.23V144.3H384.815Zm-87.719,0v50.984A72.422,72.422,0,0,1,348.863,144.3ZM512.7,76.684h0a73.989,73.989,0,0,1-15.485,38.34,75.809,75.809,0,0,1-33.079,24.187h97.115a75.805,75.805,0,0,1-33.074-24.187A73.973,73.973,0,0,1,512.7,76.684ZM292.007,8.982,226.038,139.21h65.969ZM149.283,2.594h0L80.079,139.21H218.487L149.283,2.594ZM8.724,12.8h0V139.21H72.76L8.724,12.8ZM217.7,210.826a1.467,1.467,0,1,1,1.467-1.467A1.468,1.468,0,0,1,217.7,210.826Zm-11.042,0a1.467,1.467,0,1,1,1.466-1.467A1.468,1.468,0,0,1,206.659,210.826Zm-11.041,0a1.467,1.467,0,1,1,1.466-1.467A1.468,1.468,0,0,1,195.618,210.826Zm-11.041,0a1.467,1.467,0,1,1,1.466-1.467A1.468,1.468,0,0,1,184.577,210.826Zm-11.041,0A1.467,1.467,0,1,1,175,209.359,1.468,1.468,0,0,1,173.536,210.826Zm-11.042,0a1.467,1.467,0,1,1,1.466-1.467A1.468,1.468,0,0,1,162.494,210.826Zm-11.041,0a1.467,1.467,0,1,1,1.466-1.467A1.468,1.468,0,0,1,151.453,210.826Zm-11.041,0a1.467,1.467,0,1,1,1.466-1.467A1.468,1.468,0,0,1,140.411,210.826Zm-11.042,0a1.467,1.467,0,1,1,1.466-1.467A1.468,1.468,0,0,1,129.37,210.826Zm-11.041,0a1.467,1.467,0,1,1,1.466-1.467A1.468,1.468,0,0,1,118.329,210.826Zm-11.041,0a1.467,1.467,0,1,1,1.466-1.467A1.468,1.468,0,0,1,107.287,210.826Zm-11.041,0a1.467,1.467,0,1,1,1.465-1.467A1.468,1.468,0,0,1,96.246,210.826Zm-11.042,0a1.467,1.467,0,1,1,1.467-1.467A1.468,1.468,0,0,1,85.2,210.826Zm126.975-5.4a1.466,1.466,0,1,1,1.466-1.465A1.467,1.467,0,0,1,212.18,205.425Zm-11.043,0a1.466,1.466,0,1,1,1.467-1.465A1.466,1.466,0,0,1,201.137,205.425Zm-11.04,0a1.466,1.466,0,1,1,1.466-1.465A1.467,1.467,0,0,1,190.1,205.425Zm-11.041,0a1.466,1.466,0,1,1,1.466-1.465A1.467,1.467,0,0,1,179.056,205.425Zm-11.041,0a1.466,1.466,0,1,1,1.465-1.465A1.467,1.467,0,0,1,168.015,205.425Zm-11.043,0a1.466,1.466,0,1,1,1.466-1.465A1.467,1.467,0,0,1,156.972,205.425Zm-11.039,0a1.466,1.466,0,1,1,1.467-1.465A1.467,1.467,0,0,1,145.932,205.425Zm-11.042,0a1.466,1.466,0,1,1,1.466-1.465A1.467,1.467,0,0,1,134.891,205.425Zm-11.041,0a1.466,1.466,0,1,1,1.466-1.465A1.467,1.467,0,0,1,123.85,205.425Zm-11.041,0a1.466,1.466,0,1,1,1.466-1.465A1.467,1.467,0,0,1,112.808,205.425Zm-11.041,0a1.466,1.466,0,1,1,1.465-1.465A1.467,1.467,0,0,1,101.767,205.425Zm-11.042,0a1.466,1.466,0,1,1,1.466-1.465A1.467,1.467,0,0,1,90.725,205.425ZM217.7,200.15a1.466,1.466,0,1,1,1.467-1.466A1.468,1.468,0,0,1,217.7,200.15Zm-11.042,0a1.466,1.466,0,1,1,1.466-1.466A1.468,1.468,0,0,1,206.659,200.15Zm-11.041,0a1.466,1.466,0,1,1,1.466-1.466A1.468,1.468,0,0,1,195.618,200.15Zm-11.041,0a1.466,1.466,0,1,1,1.466-1.466A1.468,1.468,0,0,1,184.577,200.15Zm-11.041,0A1.466,1.466,0,1,1,175,198.683,1.468,1.468,0,0,1,173.536,200.15Zm-11.042,0a1.466,1.466,0,1,1,1.466-1.466A1.468,1.468,0,0,1,162.494,200.15Zm-11.041,0a1.466,1.466,0,1,1,1.466-1.466A1.468,1.468,0,0,1,151.453,200.15Zm-11.041,0a1.466,1.466,0,1,1,1.466-1.466A1.468,1.468,0,0,1,140.411,200.15Zm-11.042,0a1.466,1.466,0,1,1,1.466-1.466A1.468,1.468,0,0,1,129.37,200.15Zm-11.041,0a1.466,1.466,0,1,1,1.466-1.466A1.468,1.468,0,0,1,118.329,200.15Zm-11.041,0a1.466,1.466,0,1,1,1.466-1.466A1.468,1.468,0,0,1,107.287,200.15Zm-11.041,0a1.466,1.466,0,1,1,1.465-1.466A1.468,1.468,0,0,1,96.246,200.15Zm-11.041,0a1.466,1.466,0,1,1,1.466-1.466A1.468,1.468,0,0,1,85.205,200.15Zm126.974-5.472a1.466,1.466,0,1,1,1.466-1.467A1.468,1.468,0,0,1,212.18,194.678Zm-11.043,0a1.466,1.466,0,1,1,1.467-1.467A1.467,1.467,0,0,1,201.137,194.678Zm-11.04,0a1.466,1.466,0,1,1,1.466-1.467A1.468,1.468,0,0,1,190.1,194.678Zm-11.041,0a1.466,1.466,0,1,1,1.466-1.467A1.468,1.468,0,0,1,179.056,194.678Zm-11.041,0a1.466,1.466,0,1,1,1.465-1.467A1.468,1.468,0,0,1,168.015,194.678Zm-11.041,0a1.466,1.466,0,1,1,1.466-1.467A1.468,1.468,0,0,1,156.973,194.678Zm-11.041,0a1.466,1.466,0,1,1,1.467-1.467A1.468,1.468,0,0,1,145.932,194.678Zm-11.042,0a1.466,1.466,0,1,1,1.466-1.467A1.468,1.468,0,0,1,134.891,194.678Zm-11.041,0a1.466,1.466,0,1,1,1.466-1.467A1.468,1.468,0,0,1,123.85,194.678Zm-11.041,0a1.466,1.466,0,1,1,1.466-1.467A1.468,1.468,0,0,1,112.808,194.678Zm-11.041,0a1.466,1.466,0,1,1,1.465-1.467A1.468,1.468,0,0,1,101.767,194.678Zm-11.042,0a1.466,1.466,0,1,1,1.466-1.467A1.468,1.468,0,0,1,90.725,194.678Zm126.975-5.4a1.467,1.467,0,1,1,1.467-1.467A1.468,1.468,0,0,1,217.7,189.278Zm-11.042,0a1.467,1.467,0,1,1,1.466-1.467A1.468,1.468,0,0,1,206.659,189.278Zm-11.041,0a1.467,1.467,0,1,1,1.466-1.467A1.468,1.468,0,0,1,195.618,189.278Zm-11.041,0a1.467,1.467,0,1,1,1.466-1.467A1.468,1.468,0,0,1,184.577,189.278Zm-11.041,0A1.467,1.467,0,1,1,175,187.811,1.468,1.468,0,0,1,173.536,189.278Zm-11.042,0a1.467,1.467,0,1,1,1.466-1.467A1.468,1.468,0,0,1,162.494,189.278Zm-11.041,0a1.467,1.467,0,1,1,1.466-1.467A1.468,1.468,0,0,1,151.453,189.278Zm-11.041,0a1.467,1.467,0,1,1,1.466-1.467A1.468,1.468,0,0,1,140.411,189.278Zm-11.042,0a1.467,1.467,0,1,1,1.466-1.467A1.468,1.468,0,0,1,129.37,189.278Zm-11.041,0a1.467,1.467,0,1,1,1.466-1.467A1.468,1.468,0,0,1,118.329,189.278Zm-11.041,0a1.467,1.467,0,1,1,1.466-1.467A1.468,1.468,0,0,1,107.287,189.278Zm-11.041,0a1.467,1.467,0,1,1,1.465-1.467A1.468,1.468,0,0,1,96.246,189.278Zm-11.041,0a1.467,1.467,0,1,1,1.466-1.467A1.468,1.468,0,0,1,85.205,189.278Zm126.974-5.334a1.466,1.466,0,1,1,1.466-1.466A1.468,1.468,0,0,1,212.18,183.943Zm-11.043,0a1.466,1.466,0,1,1,1.467-1.466A1.467,1.467,0,0,1,201.137,183.943Zm-11.04,0a1.466,1.466,0,1,1,1.466-1.466A1.468,1.468,0,0,1,190.1,183.943Zm-11.041,0a1.466,1.466,0,1,1,1.466-1.466A1.468,1.468,0,0,1,179.056,183.943Zm-11.041,0a1.466,1.466,0,1,1,1.465-1.466A1.468,1.468,0,0,1,168.015,183.943Zm-11.041,0a1.466,1.466,0,1,1,1.465-1.466A1.468,1.468,0,0,1,156.973,183.943Zm-11.041,0a1.466,1.466,0,1,1,1.467-1.466A1.468,1.468,0,0,1,145.932,183.943Zm-11.042,0a1.466,1.466,0,1,1,1.466-1.466A1.467,1.467,0,0,1,134.891,183.943Zm-11.041,0a1.466,1.466,0,1,1,1.466-1.466A1.468,1.468,0,0,1,123.85,183.943Zm-11.041,0a1.466,1.466,0,1,1,1.466-1.466A1.468,1.468,0,0,1,112.808,183.943Zm-11.041,0a1.466,1.466,0,1,1,1.465-1.466A1.468,1.468,0,0,1,101.767,183.943Zm-11.042,0a1.466,1.466,0,1,1,1.466-1.466A1.468,1.468,0,0,1,90.725,183.943ZM217.7,178.47a1.466,1.466,0,1,1,1.467-1.465A1.467,1.467,0,0,1,217.7,178.47Zm-11.042,0a1.466,1.466,0,1,1,1.466-1.465A1.467,1.467,0,0,1,206.659,178.47Zm-11.041,0a1.466,1.466,0,1,1,1.466-1.465A1.467,1.467,0,0,1,195.618,178.47Zm-11.041,0a1.466,1.466,0,1,1,1.466-1.465A1.467,1.467,0,0,1,184.577,178.47Zm-11.041,0A1.466,1.466,0,1,1,175,177.005,1.468,1.468,0,0,1,173.536,178.47Zm-11.042,0a1.466,1.466,0,1,1,1.466-1.465A1.467,1.467,0,0,1,162.494,178.47Zm-11.041,0a1.466,1.466,0,1,1,1.466-1.465A1.467,1.467,0,0,1,151.453,178.47Zm-11.041,0a1.466,1.466,0,1,1,1.466-1.465A1.467,1.467,0,0,1,140.411,178.47Zm-11.042,0a1.466,1.466,0,1,1,1.466-1.465A1.467,1.467,0,0,1,129.37,178.47Zm-11.041,0a1.466,1.466,0,1,1,1.466-1.465A1.467,1.467,0,0,1,118.329,178.47Zm-11.041,0a1.466,1.466,0,1,1,1.466-1.465A1.467,1.467,0,0,1,107.287,178.47Zm-11.041,0a1.466,1.466,0,1,1,1.465-1.465A1.467,1.467,0,0,1,96.246,178.47Zm-11.041,0a1.466,1.466,0,1,1,1.466-1.465A1.467,1.467,0,0,1,85.205,178.47Zm126.974-5.4a1.466,1.466,0,1,1,1.466-1.466A1.468,1.468,0,0,1,212.18,173.071Zm-11.043,0A1.466,1.466,0,1,1,202.6,171.6,1.467,1.467,0,0,1,201.137,173.071Zm-11.04,0a1.466,1.466,0,1,1,1.466-1.466A1.468,1.468,0,0,1,190.1,173.071Zm-11.041,0a1.466,1.466,0,1,1,1.466-1.466A1.468,1.468,0,0,1,179.056,173.071Zm-11.041,0a1.466,1.466,0,1,1,1.465-1.466A1.468,1.468,0,0,1,168.015,173.071Zm-11.041,0a1.466,1.466,0,1,1,1.465-1.466A1.468,1.468,0,0,1,156.973,173.071Zm-11.041,0A1.466,1.466,0,1,1,147.4,171.6,1.468,1.468,0,0,1,145.932,173.071Zm-11.042,0a1.466,1.466,0,1,1,1.466-1.466A1.467,1.467,0,0,1,134.891,173.071Zm-11.041,0a1.466,1.466,0,1,1,1.466-1.466A1.468,1.468,0,0,1,123.85,173.071Zm-11.041,0a1.466,1.466,0,1,1,1.466-1.466A1.468,1.468,0,0,1,112.808,173.071Zm-11.041,0a1.466,1.466,0,1,1,1.465-1.466A1.468,1.468,0,0,1,101.767,173.071Zm-11.042,0a1.466,1.466,0,1,1,1.466-1.466A1.468,1.468,0,0,1,90.725,173.071ZM217.7,167.62a1.467,1.467,0,1,1,1.467-1.467A1.468,1.468,0,0,1,217.7,167.62Zm-11.042,0a1.467,1.467,0,1,1,1.466-1.467A1.468,1.468,0,0,1,206.659,167.62Zm-11.041,0a1.467,1.467,0,1,1,1.466-1.467A1.468,1.468,0,0,1,195.618,167.62Zm-11.041,0a1.467,1.467,0,1,1,1.466-1.467A1.468,1.468,0,0,1,184.577,167.62Zm-11.041,0A1.467,1.467,0,1,1,175,166.153,1.468,1.468,0,0,1,173.536,167.62Zm-11.042,0a1.467,1.467,0,1,1,1.466-1.467A1.468,1.468,0,0,1,162.494,167.62Zm-11.041,0a1.467,1.467,0,1,1,1.466-1.467A1.468,1.468,0,0,1,151.453,167.62Zm-11.041,0a1.467,1.467,0,1,1,1.466-1.467A1.468,1.468,0,0,1,140.411,167.62Zm-11.042,0a1.467,1.467,0,1,1,1.466-1.467A1.468,1.468,0,0,1,129.37,167.62Zm-11.041,0a1.467,1.467,0,1,1,1.466-1.467A1.468,1.468,0,0,1,118.329,167.62Zm-11.041,0a1.467,1.467,0,1,1,1.466-1.467A1.468,1.468,0,0,1,107.287,167.62Zm-11.041,0a1.467,1.467,0,1,1,1.465-1.467A1.468,1.468,0,0,1,96.246,167.62Zm-11.041,0a1.467,1.467,0,1,1,1.466-1.467A1.468,1.468,0,0,1,85.205,167.62Zm126.974-5.473a1.466,1.466,0,1,1,1.466-1.466A1.468,1.468,0,0,1,212.18,162.147Zm-11.041,0a1.466,1.466,0,1,1,1.466-1.467A1.468,1.468,0,0,1,201.139,162.147Zm-11.042,0a1.466,1.466,0,1,1,1.466-1.467A1.468,1.468,0,0,1,190.1,162.147Zm-11.041,0a1.466,1.466,0,1,1,1.466-1.466A1.467,1.467,0,0,1,179.056,162.147Zm-11.041,0a1.466,1.466,0,1,1,1.466-1.467A1.468,1.468,0,0,1,168.015,162.147Zm-11.041,0a1.466,1.466,0,1,1,1.466-1.467A1.468,1.468,0,0,1,156.973,162.147Zm-11.041,0a1.466,1.466,0,1,1,1.467-1.466A1.468,1.468,0,0,1,145.932,162.147Zm-11.042,0a1.466,1.466,0,1,1,1.466-1.466A1.467,1.467,0,0,1,134.891,162.147Zm-11.041,0a1.466,1.466,0,1,1,1.466-1.466A1.468,1.468,0,0,1,123.85,162.147Zm-11.041,0a1.466,1.466,0,1,1,1.466-1.467A1.468,1.468,0,0,1,112.808,162.147Zm-11.041,0a1.466,1.466,0,1,1,1.465-1.466A1.468,1.468,0,0,1,101.767,162.147Zm-11.042,0a1.466,1.466,0,1,1,1.466-1.467A1.468,1.468,0,0,1,90.725,162.147Zm126.975-5.4a1.467,1.467,0,1,1,1.467-1.467A1.468,1.468,0,0,1,217.7,156.747Zm-11.042,0a1.467,1.467,0,1,1,1.466-1.467A1.468,1.468,0,0,1,206.659,156.747Zm-11.041,0a1.467,1.467,0,1,1,1.466-1.467A1.468,1.468,0,0,1,195.618,156.747Zm-11.041,0a1.467,1.467,0,1,1,1.466-1.467A1.468,1.468,0,0,1,184.577,156.747Zm-11.041,0A1.467,1.467,0,1,1,175,155.28,1.468,1.468,0,0,1,173.536,156.747Zm-11.042,0a1.467,1.467,0,1,1,1.466-1.467A1.468,1.468,0,0,1,162.494,156.747Zm-11.041,0a1.467,1.467,0,1,1,1.466-1.467A1.468,1.468,0,0,1,151.453,156.747Zm-11.041,0a1.467,1.467,0,1,1,1.466-1.467A1.468,1.468,0,0,1,140.411,156.747Zm-11.042,0a1.467,1.467,0,1,1,1.466-1.467A1.468,1.468,0,0,1,129.37,156.747Zm-11.041,0a1.467,1.467,0,1,1,1.466-1.467A1.468,1.468,0,0,1,118.329,156.747Zm-11.041,0a1.467,1.467,0,1,1,1.466-1.467A1.468,1.468,0,0,1,107.287,156.747Zm-11.041,0a1.467,1.467,0,1,1,1.465-1.467A1.468,1.468,0,0,1,96.246,156.747Zm-11.041,0a1.467,1.467,0,1,1,1.466-1.467A1.468,1.468,0,0,1,85.205,156.747Zm126.974-5.116a1.467,1.467,0,1,1,1.466-1.467A1.469,1.469,0,0,1,212.18,151.631Zm-11.043,0a1.467,1.467,0,1,1,1.467-1.467A1.468,1.468,0,0,1,201.137,151.631Zm-11.04,0a1.467,1.467,0,1,1,1.466-1.467A1.468,1.468,0,0,1,190.1,151.631Zm-11.041,0a1.467,1.467,0,1,1,1.466-1.467A1.469,1.469,0,0,1,179.056,151.631Zm-11.041,0a1.467,1.467,0,1,1,1.465-1.467A1.469,1.469,0,0,1,168.015,151.631Zm-11.041,0a1.467,1.467,0,1,1,1.466-1.467A1.469,1.469,0,0,1,156.973,151.631Zm-11.041,0a1.467,1.467,0,1,1,1.467-1.467A1.469,1.469,0,0,1,145.932,151.631Zm-11.042,0a1.467,1.467,0,1,1,1.466-1.467A1.468,1.468,0,0,1,134.891,151.631Zm-11.041,0a1.467,1.467,0,1,1,1.466-1.467A1.469,1.469,0,0,1,123.85,151.631Zm-11.041,0a1.467,1.467,0,1,1,1.466-1.467A1.469,1.469,0,0,1,112.808,151.631Zm-11.042,0a1.467,1.467,0,1,1,1.466-1.467A1.468,1.468,0,0,1,101.767,151.631Zm-11.041,0a1.467,1.467,0,1,1,1.466-1.467A1.469,1.469,0,0,1,90.725,151.631Z" transform="translate(1374.318 690.698)" stroke="rgba(0,0,0,0)" stroke-miterlimit="10" stroke-width="1" opacity="0.19" fill="url(#radial-gradient)"/>
        </g>
      </g>
    </g>
  </g>
</svg>
